<?xml version="1.0" encoding="UTF-8"?> <svg xmlns="http://www.w3.org/2000/svg" width="299" height="349" viewBox="0 0 299 349" fill="none"><rect y="69" width="94.7763" height="34" rx="3" fill="#6DEFA8"></rect><path d="M31.9816 91V82.068L30.0846 83.209V82.054L31.9816 80.92H33.0246V91H31.9816ZM38.9697 91.21C38.349 91.21 37.789 91.0653 37.2897 90.776C36.795 90.4867 36.403 90.0947 36.1137 89.6C35.8244 89.1007 35.6797 88.5407 35.6797 87.92V84C35.6797 83.3793 35.8244 82.8217 36.1137 82.327C36.403 81.8277 36.795 81.4333 37.2897 81.144C37.789 80.8547 38.349 80.71 38.9697 80.71C39.5904 80.71 40.148 80.8547 40.6427 81.144C41.142 81.4333 41.5364 81.8277 41.8257 82.327C42.115 82.8217 42.2597 83.3793 42.2597 84V87.92C42.2597 88.5407 42.115 89.1007 41.8257 89.6C41.5364 90.0947 41.142 90.4867 40.6427 90.776C40.148 91.0653 39.5904 91.21 38.9697 91.21ZM38.9697 90.216C39.385 90.216 39.763 90.1157 40.1037 89.915C40.4444 89.7097 40.715 89.4367 40.9157 89.096C41.1164 88.7553 41.2167 88.3797 41.2167 87.969V83.951C41.2167 83.5357 41.1164 83.1577 40.9157 82.817C40.715 82.4763 40.4444 82.2057 40.1037 82.005C39.763 81.7997 39.385 81.697 38.9697 81.697C38.5544 81.697 38.1764 81.7997 37.8357 82.005C37.495 82.2057 37.2244 82.4763 37.0237 82.817C36.823 83.1577 36.7227 83.5357 36.7227 83.951V87.969C36.7227 88.3797 36.823 88.7553 37.0237 89.096C37.2244 89.4367 37.495 89.7097 37.8357 89.915C38.1764 90.1157 38.5544 90.216 38.9697 90.216ZM44.7846 89.88V88.683H45.9816V89.88H44.7846ZM44.7916 85.757V84.56H45.9886V85.757H44.7916ZM51.6982 91.21C51.0776 91.21 50.5176 91.0653 50.0182 90.776C49.5236 90.4867 49.1316 90.0947 48.8422 89.6C48.5529 89.1007 48.4082 88.5407 48.4082 87.92V84C48.4082 83.3793 48.5529 82.8217 48.8422 82.327C49.1316 81.8277 49.5236 81.4333 50.0182 81.144C50.5176 80.8547 51.0776 80.71 51.6982 80.71C52.3189 80.71 52.8766 80.8547 53.3712 81.144C53.8706 81.4333 54.2649 81.8277 54.5542 82.327C54.8436 82.8217 54.9882 83.3793 54.9882 84V87.92C54.9882 88.5407 54.8436 89.1007 54.5542 89.6C54.2649 90.0947 53.8706 90.4867 53.3712 90.776C52.8766 91.0653 52.3189 91.21 51.6982 91.21ZM51.6982 90.216C52.1136 90.216 52.4916 90.1157 52.8322 89.915C53.1729 89.7097 53.4436 89.4367 53.6442 89.096C53.8449 88.7553 53.9452 88.3797 53.9452 87.969V83.951C53.9452 83.5357 53.8449 83.1577 53.6442 82.817C53.4436 82.4763 53.1729 82.2057 52.8322 82.005C52.4916 81.7997 52.1136 81.697 51.6982 81.697C51.2829 81.697 50.9049 81.7997 50.5642 82.005C50.2236 82.2057 49.9529 82.4763 49.7522 82.817C49.5516 83.1577 49.4512 83.5357 49.4512 83.951V87.969C49.4512 88.3797 49.5516 88.7553 49.7522 89.096C49.9529 89.4367 50.2236 89.7097 50.5642 89.915C50.9049 90.1157 51.2829 90.216 51.6982 90.216ZM60.2431 91.21C59.6225 91.21 59.0625 91.0653 58.5631 90.776C58.0685 90.4867 57.6765 90.0947 57.3871 89.6C57.0978 89.1007 56.9531 88.5407 56.9531 87.92V84C56.9531 83.3793 57.0978 82.8217 57.3871 82.327C57.6765 81.8277 58.0685 81.4333 58.5631 81.144C59.0625 80.8547 59.6225 80.71 60.2431 80.71C60.8638 80.71 61.4215 80.8547 61.9161 81.144C62.4155 81.4333 62.8098 81.8277 63.0991 82.327C63.3885 82.8217 63.5331 83.3793 63.5331 84V87.92C63.5331 88.5407 63.3885 89.1007 63.0991 89.6C62.8098 90.0947 62.4155 90.4867 61.9161 90.776C61.4215 91.0653 60.8638 91.21 60.2431 91.21ZM60.2431 90.216C60.6585 90.216 61.0365 90.1157 61.3771 89.915C61.7178 89.7097 61.9885 89.4367 62.1891 89.096C62.3898 88.7553 62.4901 88.3797 62.4901 87.969V83.951C62.4901 83.5357 62.3898 83.1577 62.1891 82.817C61.9885 82.4763 61.7178 82.2057 61.3771 82.005C61.0365 81.7997 60.6585 81.697 60.2431 81.697C59.8278 81.697 59.4498 81.7997 59.1091 82.005C58.7685 82.2057 58.4978 82.4763 58.2971 82.817C58.0965 83.1577 57.9961 83.5357 57.9961 83.951V87.969C57.9961 88.3797 58.0965 88.7553 58.2971 89.096C58.4978 89.4367 58.7685 89.7097 59.1091 89.915C59.4498 90.1157 59.8278 90.216 60.2431 90.216Z" fill="#1E1E1E"></path><rect y="110" width="94.7763" height="34" rx="3" fill="#6DEFA8"></rect><path d="M34.0266 132V123.068L32.1296 124.209V123.054L34.0266 121.92H35.0696V132H34.0266ZM39.4816 132V123.068L37.5846 124.209V123.054L39.4816 121.92H40.5246V132H39.4816ZM43.7397 130.88V129.683H44.9367V130.88H43.7397ZM43.7467 126.757V125.56H44.9437V126.757H43.7467ZM50.6533 132.21C50.0326 132.21 49.4726 132.065 48.9733 131.776C48.4786 131.487 48.0866 131.095 47.7973 130.6C47.508 130.101 47.3633 129.541 47.3633 128.92V125C47.3633 124.379 47.508 123.822 47.7973 123.327C48.0866 122.828 48.4786 122.433 48.9733 122.144C49.4726 121.855 50.0326 121.71 50.6533 121.71C51.274 121.71 51.8316 121.855 52.3263 122.144C52.8256 122.433 53.22 122.828 53.5093 123.327C53.7986 123.822 53.9433 124.379 53.9433 125V128.92C53.9433 129.541 53.7986 130.101 53.5093 130.6C53.22 131.095 52.8256 131.487 52.3263 131.776C51.8316 132.065 51.274 132.21 50.6533 132.21ZM50.6533 131.216C51.0686 131.216 51.4466 131.116 51.7873 130.915C52.128 130.71 52.3986 130.437 52.5993 130.096C52.8 129.755 52.9003 129.38 52.9003 128.969V124.951C52.9003 124.536 52.8 124.158 52.5993 123.817C52.3986 123.476 52.128 123.206 51.7873 123.005C51.4466 122.8 51.0686 122.697 50.6533 122.697C50.238 122.697 49.86 122.8 49.5193 123.005C49.1786 123.206 48.908 123.476 48.7073 123.817C48.5066 124.158 48.4063 124.536 48.4063 124.951V128.969C48.4063 129.38 48.5066 129.755 48.7073 130.096C48.908 130.437 49.1786 130.71 49.5193 130.915C49.86 131.116 50.238 131.216 50.6533 131.216ZM59.1982 132.21C58.5776 132.21 58.0176 132.065 57.5182 131.776C57.0236 131.487 56.6316 131.095 56.3422 130.6C56.0529 130.101 55.9082 129.541 55.9082 128.92V125C55.9082 124.379 56.0529 123.822 56.3422 123.327C56.6316 122.828 57.0236 122.433 57.5182 122.144C58.0176 121.855 58.5776 121.71 59.1982 121.71C59.8189 121.71 60.3766 121.855 60.8712 122.144C61.3706 122.433 61.7649 122.828 62.0542 123.327C62.3436 123.822 62.4882 124.379 62.4882 125V128.92C62.4882 129.541 62.3436 130.101 62.0542 130.6C61.7649 131.095 61.3706 131.487 60.8712 131.776C60.3766 132.065 59.8189 132.21 59.1982 132.21ZM59.1982 131.216C59.6136 131.216 59.9916 131.116 60.3322 130.915C60.6729 130.71 60.9436 130.437 61.1442 130.096C61.3449 129.755 61.4452 129.38 61.4452 128.969V124.951C61.4452 124.536 61.3449 124.158 61.1442 123.817C60.9436 123.476 60.6729 123.206 60.3322 123.005C59.9916 122.8 59.6136 122.697 59.1982 122.697C58.7829 122.697 58.4049 122.8 58.0642 123.005C57.7236 123.206 57.4529 123.476 57.2522 123.817C57.0516 124.158 56.9512 124.536 56.9512 124.951V128.969C56.9512 129.38 57.0516 129.755 57.2522 130.096C57.4529 130.437 57.7236 130.71 58.0642 130.915C58.4049 131.116 58.7829 131.216 59.1982 131.216Z" fill="#1E1E1E"></path><rect y="151" width="94.7763" height="34" rx="3" fill="#6DEFA8"></rect><path d="M32.7619 173V164.068L30.8649 165.209V164.054L32.7619 162.92H33.8049V173H32.7619ZM36.18 172.993L36.187 172.055L40.744 167.939C41.136 167.584 41.395 167.248 41.521 166.931C41.6516 166.609 41.717 166.273 41.717 165.923C41.717 165.508 41.619 165.132 41.423 164.796C41.227 164.46 40.9633 164.194 40.632 163.998C40.3006 163.797 39.9296 163.697 39.519 163.697C39.0896 163.697 38.707 163.8 38.371 164.005C38.035 164.21 37.769 164.481 37.573 164.817C37.3816 165.153 37.2883 165.519 37.293 165.916H36.243C36.243 165.305 36.3876 164.756 36.677 164.271C36.9663 163.786 37.3583 163.405 37.853 163.13C38.3476 162.85 38.9076 162.71 39.533 162.71C40.1443 162.71 40.6926 162.855 41.178 163.144C41.668 163.429 42.053 163.816 42.333 164.306C42.6176 164.791 42.76 165.333 42.76 165.93C42.76 166.35 42.7086 166.721 42.606 167.043C42.508 167.36 42.3516 167.657 42.137 167.932C41.927 168.203 41.6586 168.483 41.332 168.772L37.286 172.426L37.125 172.006H42.76V172.993H36.18ZM45.0044 171.88V170.683H46.2014V171.88H45.0044ZM45.0114 167.757V166.56H46.2084V167.757H45.0114ZM51.9179 173.21C51.2973 173.21 50.7373 173.065 50.2379 172.776C49.7433 172.487 49.3513 172.095 49.0619 171.6C48.7726 171.101 48.6279 170.541 48.6279 169.92V166C48.6279 165.379 48.7726 164.822 49.0619 164.327C49.3513 163.828 49.7433 163.433 50.2379 163.144C50.7373 162.855 51.2973 162.71 51.9179 162.71C52.5386 162.71 53.0963 162.855 53.5909 163.144C54.0903 163.433 54.4846 163.828 54.7739 164.327C55.0633 164.822 55.2079 165.379 55.2079 166V169.92C55.2079 170.541 55.0633 171.101 54.7739 171.6C54.4846 172.095 54.0903 172.487 53.5909 172.776C53.0963 173.065 52.5386 173.21 51.9179 173.21ZM51.9179 172.216C52.3333 172.216 52.7113 172.116 53.0519 171.915C53.3926 171.71 53.6633 171.437 53.8639 171.096C54.0646 170.755 54.1649 170.38 54.1649 169.969V165.951C54.1649 165.536 54.0646 165.158 53.8639 164.817C53.6633 164.476 53.3926 164.206 53.0519 164.005C52.7113 163.8 52.3333 163.697 51.9179 163.697C51.5026 163.697 51.1246 163.8 50.7839 164.005C50.4433 164.206 50.1726 164.476 49.9719 164.817C49.7713 165.158 49.6709 165.536 49.6709 165.951V169.969C49.6709 170.38 49.7713 170.755 49.9719 171.096C50.1726 171.437 50.4433 171.71 50.7839 171.915C51.1246 172.116 51.5026 172.216 51.9179 172.216ZM60.4629 173.21C59.8422 173.21 59.2822 173.065 58.7829 172.776C58.2882 172.487 57.8962 172.095 57.6069 171.6C57.3175 171.101 57.1729 170.541 57.1729 169.92V166C57.1729 165.379 57.3175 164.822 57.6069 164.327C57.8962 163.828 58.2882 163.433 58.7829 163.144C59.2822 162.855 59.8422 162.71 60.4629 162.71C61.0835 162.71 61.6412 162.855 62.1359 163.144C62.6352 163.433 63.0295 163.828 63.3189 164.327C63.6082 164.822 63.7529 165.379 63.7529 166V169.92C63.7529 170.541 63.6082 171.101 63.3189 171.6C63.0295 172.095 62.6352 172.487 62.1359 172.776C61.6412 173.065 61.0835 173.21 60.4629 173.21ZM60.4629 172.216C60.8782 172.216 61.2562 172.116 61.5969 171.915C61.9375 171.71 62.2082 171.437 62.4089 171.096C62.6095 170.755 62.7099 170.38 62.7099 169.969V165.951C62.7099 165.536 62.6095 165.158 62.4089 164.817C62.2082 164.476 61.9375 164.206 61.5969 164.005C61.2562 163.8 60.8782 163.697 60.4629 163.697C60.0475 163.697 59.6695 163.8 59.3289 164.005C58.9882 164.206 58.7175 164.476 58.5169 164.817C58.3162 165.158 58.2159 165.536 58.2159 165.951V169.969C58.2159 170.38 58.3162 170.755 58.5169 171.096C58.7175 171.437 58.9882 171.71 59.3289 171.915C59.6695 172.116 60.0475 172.216 60.4629 172.216Z" fill="#1E1E1E"></path><rect y="192" width="94.7763" height="34" rx="3" fill="#6DEFA8"></rect><path d="M32.8849 214V205.068L30.9879 206.209V205.054L32.8849 203.92H33.9279V214H32.8849ZM39.292 214.203C38.7927 214.203 38.333 214.114 37.913 213.937C37.493 213.76 37.1314 213.508 36.828 213.181C36.5247 212.85 36.303 212.455 36.163 211.998L37.143 211.704C37.311 212.203 37.5864 212.581 37.969 212.838C38.3564 213.095 38.7927 213.218 39.278 213.209C39.726 213.2 40.111 213.099 40.433 212.908C40.7597 212.717 41.0094 212.451 41.182 212.11C41.3547 211.769 41.441 211.375 41.441 210.927C41.441 210.241 41.2404 209.69 40.839 209.275C40.4424 208.855 39.9174 208.645 39.264 208.645C39.082 208.645 38.8907 208.671 38.69 208.722C38.4894 208.769 38.3027 208.836 38.13 208.925L37.612 208.106L41.532 204.487L41.7 204.907H36.562V203.92H42.386V204.921L38.97 208.183L38.956 207.777C39.656 207.688 40.272 207.768 40.804 208.015C41.336 208.262 41.7514 208.64 42.05 209.149C42.3534 209.653 42.505 210.246 42.505 210.927C42.505 211.571 42.365 212.14 42.085 212.635C41.8097 213.125 41.4294 213.51 40.944 213.79C40.4587 214.065 39.908 214.203 39.292 214.203ZM44.8813 212.88V211.683H46.0783V212.88H44.8813ZM44.8883 208.757V207.56H46.0853V208.757H44.8883ZM51.7949 214.21C51.1742 214.21 50.6142 214.065 50.1149 213.776C49.6202 213.487 49.2282 213.095 48.9389 212.6C48.6496 212.101 48.5049 211.541 48.5049 210.92V207C48.5049 206.379 48.6496 205.822 48.9389 205.327C49.2282 204.828 49.6202 204.433 50.1149 204.144C50.6142 203.855 51.1742 203.71 51.7949 203.71C52.4156 203.71 52.9732 203.855 53.4679 204.144C53.9672 204.433 54.3616 204.828 54.6509 205.327C54.9402 205.822 55.0849 206.379 55.0849 207V210.92C55.0849 211.541 54.9402 212.101 54.6509 212.6C54.3616 213.095 53.9672 213.487 53.4679 213.776C52.9732 214.065 52.4156 214.21 51.7949 214.21ZM51.7949 213.216C52.2102 213.216 52.5882 213.116 52.9289 212.915C53.2696 212.71 53.5402 212.437 53.7409 212.096C53.9416 211.755 54.0419 211.38 54.0419 210.969V206.951C54.0419 206.536 53.9416 206.158 53.7409 205.817C53.5402 205.476 53.2696 205.206 52.9289 205.005C52.5882 204.8 52.2102 204.697 51.7949 204.697C51.3796 204.697 51.0016 204.8 50.6609 205.005C50.3202 205.206 50.0496 205.476 49.8489 205.817C49.6482 206.158 49.5479 206.536 49.5479 206.951V210.969C49.5479 211.38 49.6482 211.755 49.8489 212.096C50.0496 212.437 50.3202 212.71 50.6609 212.915C51.0016 213.116 51.3796 213.216 51.7949 213.216ZM60.3398 214.21C59.7192 214.21 59.1592 214.065 58.6598 213.776C58.1652 213.487 57.7732 213.095 57.4838 212.6C57.1945 212.101 57.0498 211.541 57.0498 210.92V207C57.0498 206.379 57.1945 205.822 57.4838 205.327C57.7732 204.828 58.1652 204.433 58.6598 204.144C59.1592 203.855 59.7192 203.71 60.3398 203.71C60.9605 203.71 61.5182 203.855 62.0128 204.144C62.5122 204.433 62.9065 204.828 63.1958 205.327C63.4852 205.822 63.6298 206.379 63.6298 207V210.92C63.6298 211.541 63.4852 212.101 63.1958 212.6C62.9065 213.095 62.5122 213.487 62.0128 213.776C61.5182 214.065 60.9605 214.21 60.3398 214.21ZM60.3398 213.216C60.7552 213.216 61.1332 213.116 61.4738 212.915C61.8145 212.71 62.0852 212.437 62.2858 212.096C62.4865 211.755 62.5868 211.38 62.5868 210.969V206.951C62.5868 206.536 62.4865 206.158 62.2858 205.817C62.0852 205.476 61.8145 205.206 61.4738 205.005C61.1332 204.8 60.7552 204.697 60.3398 204.697C59.9245 204.697 59.5465 204.8 59.2058 205.005C58.8652 205.206 58.5945 205.476 58.3938 205.817C58.1932 206.158 58.0928 206.536 58.0928 206.951V210.969C58.0928 211.38 58.1932 211.755 58.3938 212.096C58.5945 212.437 58.8652 212.71 59.2058 212.915C59.5465 213.116 59.9245 213.216 60.3398 213.216Z" fill="#1E1E1E"></path><rect y="233" width="94.7763" height="34" rx="3" fill="#E0E0E0"></rect><path d="M32.6252 255V246.068L30.7282 247.209V246.054L32.6252 244.92H33.6682V255H32.6252ZM40.7613 255V253.047H36.0433V252.067L39.4173 244.92H40.5723L37.1983 252.067H40.7613V249.127H41.7973V252.067H42.8963V253.047H41.7973V255H40.7613ZM45.1411 253.88V252.683H46.3381V253.88H45.1411ZM45.1481 249.757V248.56H46.3451V249.757H45.1481ZM52.0547 255.21C51.434 255.21 50.874 255.065 50.3747 254.776C49.88 254.487 49.488 254.095 49.1987 253.6C48.9093 253.101 48.7647 252.541 48.7647 251.92V248C48.7647 247.379 48.9093 246.822 49.1987 246.327C49.488 245.828 49.88 245.433 50.3747 245.144C50.874 244.855 51.434 244.71 52.0547 244.71C52.6753 244.71 53.233 244.855 53.7277 245.144C54.227 245.433 54.6213 245.828 54.9107 246.327C55.2 246.822 55.3447 247.379 55.3447 248V251.92C55.3447 252.541 55.2 253.101 54.9107 253.6C54.6213 254.095 54.227 254.487 53.7277 254.776C53.233 255.065 52.6753 255.21 52.0547 255.21ZM52.0547 254.216C52.47 254.216 52.848 254.116 53.1887 253.915C53.5293 253.71 53.8 253.437 54.0007 253.096C54.2013 252.755 54.3017 252.38 54.3017 251.969V247.951C54.3017 247.536 54.2013 247.158 54.0007 246.817C53.8 246.476 53.5293 246.206 53.1887 246.005C52.848 245.8 52.47 245.697 52.0547 245.697C51.6393 245.697 51.2613 245.8 50.9207 246.005C50.58 246.206 50.3093 246.476 50.1087 246.817C49.908 247.158 49.8077 247.536 49.8077 247.951V251.969C49.8077 252.38 49.908 252.755 50.1087 253.096C50.3093 253.437 50.58 253.71 50.9207 253.915C51.2613 254.116 51.6393 254.216 52.0547 254.216ZM60.5996 255.21C59.9789 255.21 59.4189 255.065 58.9196 254.776C58.4249 254.487 58.0329 254.095 57.7436 253.6C57.4543 253.101 57.3096 252.541 57.3096 251.92V248C57.3096 247.379 57.4543 246.822 57.7436 246.327C58.0329 245.828 58.4249 245.433 58.9196 245.144C59.4189 244.855 59.9789 244.71 60.5996 244.71C61.2203 244.71 61.7779 244.855 62.2726 245.144C62.7719 245.433 63.1663 245.828 63.4556 246.327C63.7449 246.822 63.8896 247.379 63.8896 248V251.92C63.8896 252.541 63.7449 253.101 63.4556 253.6C63.1663 254.095 62.7719 254.487 62.2726 254.776C61.7779 255.065 61.2203 255.21 60.5996 255.21ZM60.5996 254.216C61.0149 254.216 61.3929 254.116 61.7336 253.915C62.0743 253.71 62.3449 253.437 62.5456 253.096C62.7463 252.755 62.8466 252.38 62.8466 251.969V247.951C62.8466 247.536 62.7463 247.158 62.5456 246.817C62.3449 246.476 62.0743 246.206 61.7336 246.005C61.3929 245.8 61.0149 245.697 60.5996 245.697C60.1843 245.697 59.8063 245.8 59.4656 246.005C59.1249 246.206 58.8543 246.476 58.6536 246.817C58.4529 247.158 58.3526 247.536 58.3526 247.951V251.969C58.3526 252.38 58.4529 252.755 58.6536 253.096C58.8543 253.437 59.1249 253.71 59.4656 253.915C59.8063 254.116 60.1843 254.216 60.5996 254.216Z" fill="#B7B7B7"></path><rect y="274" width="94.7763" height="34" rx="3" fill="#6DEFA8"></rect><path d="M32.7141 296V287.068L30.8171 288.209V287.054L32.7141 285.92H33.7571V296H32.7141ZM39.3871 296.21C38.8645 296.21 38.3815 296.103 37.9381 295.888C37.4948 295.673 37.1168 295.377 36.8041 294.999C36.4915 294.621 36.2675 294.187 36.1321 293.697L37.1191 293.431C37.2078 293.795 37.3688 294.11 37.6021 294.376C37.8355 294.637 38.1085 294.84 38.4211 294.985C38.7385 295.13 39.0698 295.202 39.4151 295.202C39.8631 295.202 40.2645 295.095 40.6191 294.88C40.9785 294.661 41.2631 294.371 41.4731 294.012C41.6831 293.653 41.7881 293.258 41.7881 292.829C41.7881 292.386 41.6785 291.987 41.4591 291.632C41.2398 291.273 40.9505 290.988 40.5911 290.778C40.2318 290.568 39.8398 290.463 39.4151 290.463C38.9391 290.463 38.5285 290.568 38.1831 290.778C37.8378 290.983 37.5625 291.242 37.3571 291.555L36.4191 291.163L36.7271 285.92H42.1101V286.907H37.1821L37.6931 286.424L37.4201 290.897L37.1611 290.554C37.4505 290.223 37.8005 289.964 38.2111 289.777C38.6218 289.59 39.0535 289.497 39.5061 289.497C40.1268 289.497 40.6868 289.646 41.1861 289.945C41.6855 290.239 42.0821 290.638 42.3761 291.142C42.6701 291.646 42.8171 292.208 42.8171 292.829C42.8171 293.445 42.6608 294.01 42.3481 294.523C42.0355 295.032 41.6201 295.44 41.1021 295.748C40.5841 296.056 40.0125 296.21 39.3871 296.21ZM45.0522 294.88V293.683H46.2492V294.88H45.0522ZM45.0592 290.757V289.56H46.2562V290.757H45.0592ZM51.9658 296.21C51.3451 296.21 50.7851 296.065 50.2858 295.776C49.7911 295.487 49.3991 295.095 49.1098 294.6C48.8205 294.101 48.6758 293.541 48.6758 292.92V289C48.6758 288.379 48.8205 287.822 49.1098 287.327C49.3991 286.828 49.7911 286.433 50.2858 286.144C50.7851 285.855 51.3451 285.71 51.9658 285.71C52.5865 285.71 53.1441 285.855 53.6388 286.144C54.1381 286.433 54.5325 286.828 54.8218 287.327C55.1111 287.822 55.2558 288.379 55.2558 289V292.92C55.2558 293.541 55.1111 294.101 54.8218 294.6C54.5325 295.095 54.1381 295.487 53.6388 295.776C53.1441 296.065 52.5865 296.21 51.9658 296.21ZM51.9658 295.216C52.3811 295.216 52.7591 295.116 53.0998 294.915C53.4405 294.71 53.7111 294.437 53.9118 294.096C54.1125 293.755 54.2128 293.38 54.2128 292.969V288.951C54.2128 288.536 54.1125 288.158 53.9118 287.817C53.7111 287.476 53.4405 287.206 53.0998 287.005C52.7591 286.8 52.3811 286.697 51.9658 286.697C51.5505 286.697 51.1725 286.8 50.8318 287.005C50.4911 287.206 50.2205 287.476 50.0198 287.817C49.8191 288.158 49.7188 288.536 49.7188 288.951V292.969C49.7188 293.38 49.8191 293.755 50.0198 294.096C50.2205 294.437 50.4911 294.71 50.8318 294.915C51.1725 295.116 51.5505 295.216 51.9658 295.216ZM60.5107 296.21C59.8901 296.21 59.3301 296.065 58.8307 295.776C58.3361 295.487 57.9441 295.095 57.6547 294.6C57.3654 294.101 57.2207 293.541 57.2207 292.92V289C57.2207 288.379 57.3654 287.822 57.6547 287.327C57.9441 286.828 58.3361 286.433 58.8307 286.144C59.3301 285.855 59.8901 285.71 60.5107 285.71C61.1314 285.71 61.6891 285.855 62.1837 286.144C62.6831 286.433 63.0774 286.828 63.3667 287.327C63.6561 287.822 63.8007 288.379 63.8007 289V292.92C63.8007 293.541 63.6561 294.101 63.3667 294.6C63.0774 295.095 62.6831 295.487 62.1837 295.776C61.6891 296.065 61.1314 296.21 60.5107 296.21ZM60.5107 295.216C60.9261 295.216 61.3041 295.116 61.6447 294.915C61.9854 294.71 62.2561 294.437 62.4567 294.096C62.6574 293.755 62.7577 293.38 62.7577 292.969V288.951C62.7577 288.536 62.6574 288.158 62.4567 287.817C62.2561 287.476 61.9854 287.206 61.6447 287.005C61.3041 286.8 60.9261 286.697 60.5107 286.697C60.0954 286.697 59.7174 286.8 59.3767 287.005C59.0361 287.206 58.7654 287.476 58.5647 287.817C58.3641 288.158 58.2637 288.536 58.2637 288.951V292.969C58.2637 293.38 58.3641 293.755 58.5647 294.096C58.7654 294.437 59.0361 294.71 59.3767 294.915C59.7174 295.116 60.0954 295.216 60.5107 295.216Z" fill="#1E1E1E"></path><rect x="204" y="28" width="94.7763" height="34" rx="3" fill="#6DEFA8"></rect><path d="M240.202 39.717C240.832 39.717 241.403 39.871 241.917 40.179C242.435 40.4823 242.845 40.8977 243.149 41.425C243.457 41.9477 243.611 42.538 243.611 43.196V46.689C243.611 47.3657 243.459 47.97 243.156 48.502C242.852 49.0293 242.437 49.447 241.91 49.755C241.387 50.0583 240.792 50.21 240.125 50.21C239.551 50.21 239.016 50.084 238.522 49.832C238.032 49.58 237.63 49.2277 237.318 48.775L238.109 48.124C238.323 48.46 238.608 48.7283 238.963 48.929C239.317 49.1297 239.705 49.23 240.125 49.23C240.596 49.23 241.016 49.1157 241.385 48.887C241.753 48.6583 242.043 48.3597 242.253 47.991C242.463 47.6177 242.568 47.214 242.568 46.78V44.582L242.827 44.876C242.533 45.338 242.145 45.7113 241.665 45.996C241.189 46.2807 240.668 46.423 240.104 46.423C239.478 46.423 238.916 46.276 238.417 45.982C237.917 45.6833 237.521 45.282 237.227 44.778C236.933 44.274 236.786 43.7093 236.786 43.084C236.786 42.4633 236.94 41.8987 237.248 41.39C237.56 40.8813 237.973 40.4753 238.487 40.172C239.005 39.8687 239.576 39.717 240.202 39.717ZM240.202 40.718C239.763 40.718 239.362 40.823 238.998 41.033C238.638 41.243 238.351 41.5277 238.137 41.887C237.927 42.2463 237.822 42.6453 237.822 43.084C237.822 43.5227 237.927 43.924 238.137 44.288C238.351 44.6473 238.638 44.9343 238.998 45.149C239.357 45.359 239.756 45.464 240.195 45.464C240.633 45.464 241.032 45.359 241.392 45.149C241.751 44.9343 242.036 44.6473 242.246 44.288C242.46 43.924 242.568 43.5227 242.568 43.084C242.568 42.65 242.463 42.2533 242.253 41.894C242.043 41.5347 241.758 41.25 241.399 41.04C241.039 40.8253 240.64 40.718 240.202 40.718ZM246.125 48.88V47.683H247.322V48.88H246.125ZM246.132 44.757V43.56H247.329V44.757H246.132ZM253.039 50.21C252.418 50.21 251.858 50.0653 251.359 49.776C250.864 49.4867 250.472 49.0947 250.183 48.6C249.894 48.1007 249.749 47.5407 249.749 46.92V43C249.749 42.3793 249.894 41.8217 250.183 41.327C250.472 40.8277 250.864 40.4333 251.359 40.144C251.858 39.8547 252.418 39.71 253.039 39.71C253.66 39.71 254.217 39.8547 254.712 40.144C255.211 40.4333 255.606 40.8277 255.895 41.327C256.184 41.8217 256.329 42.3793 256.329 43V46.92C256.329 47.5407 256.184 48.1007 255.895 48.6C255.606 49.0947 255.211 49.4867 254.712 49.776C254.217 50.0653 253.66 50.21 253.039 50.21ZM253.039 49.216C253.454 49.216 253.832 49.1157 254.173 48.915C254.514 48.7097 254.784 48.4367 254.985 48.096C255.186 47.7553 255.286 47.3797 255.286 46.969V42.951C255.286 42.5357 255.186 42.1577 254.985 41.817C254.784 41.4763 254.514 41.2057 254.173 41.005C253.832 40.7997 253.454 40.697 253.039 40.697C252.624 40.697 252.246 40.7997 251.905 41.005C251.564 41.2057 251.294 41.4763 251.093 41.817C250.892 42.1577 250.792 42.5357 250.792 42.951V46.969C250.792 47.3797 250.892 47.7553 251.093 48.096C251.294 48.4367 251.564 48.7097 251.905 48.915C252.246 49.1157 252.624 49.216 253.039 49.216ZM261.584 50.21C260.963 50.21 260.403 50.0653 259.904 49.776C259.409 49.4867 259.017 49.0947 258.728 48.6C258.439 48.1007 258.294 47.5407 258.294 46.92V43C258.294 42.3793 258.439 41.8217 258.728 41.327C259.017 40.8277 259.409 40.4333 259.904 40.144C260.403 39.8547 260.963 39.71 261.584 39.71C262.205 39.71 262.762 39.8547 263.257 40.144C263.756 40.4333 264.151 40.8277 264.44 41.327C264.729 41.8217 264.874 42.3793 264.874 43V46.92C264.874 47.5407 264.729 48.1007 264.44 48.6C264.151 49.0947 263.756 49.4867 263.257 49.776C262.762 50.0653 262.205 50.21 261.584 50.21ZM261.584 49.216C261.999 49.216 262.377 49.1157 262.718 48.915C263.059 48.7097 263.329 48.4367 263.53 48.096C263.731 47.7553 263.831 47.3797 263.831 46.969V42.951C263.831 42.5357 263.731 42.1577 263.53 41.817C263.329 41.4763 263.059 41.2057 262.718 41.005C262.377 40.7997 261.999 40.697 261.584 40.697C261.169 40.697 260.791 40.7997 260.45 41.005C260.109 41.2057 259.839 41.4763 259.638 41.817C259.437 42.1577 259.337 42.5357 259.337 42.951V46.969C259.337 47.3797 259.437 47.7553 259.638 48.096C259.839 48.4367 260.109 48.7097 260.45 48.915C260.791 49.1157 261.169 49.216 261.584 49.216Z" fill="#1E1E1E"></path><rect x="204" y="69" width="94.7763" height="34" rx="3" fill="#6DEFA8"></rect><path d="M235.982 91V82.068L234.085 83.209V82.054L235.982 80.92H237.025V91H235.982ZM242.97 91.21C242.349 91.21 241.789 91.0653 241.29 90.776C240.795 90.4867 240.403 90.0947 240.114 89.6C239.824 89.1007 239.68 88.5407 239.68 87.92V84C239.68 83.3793 239.824 82.8217 240.114 82.327C240.403 81.8277 240.795 81.4333 241.29 81.144C241.789 80.8547 242.349 80.71 242.97 80.71C243.59 80.71 244.148 80.8547 244.643 81.144C245.142 81.4333 245.536 81.8277 245.826 82.327C246.115 82.8217 246.26 83.3793 246.26 84V87.92C246.26 88.5407 246.115 89.1007 245.826 89.6C245.536 90.0947 245.142 90.4867 244.643 90.776C244.148 91.0653 243.59 91.21 242.97 91.21ZM242.97 90.216C243.385 90.216 243.763 90.1157 244.104 89.915C244.444 89.7097 244.715 89.4367 244.916 89.096C245.116 88.7553 245.217 88.3797 245.217 87.969V83.951C245.217 83.5357 245.116 83.1577 244.916 82.817C244.715 82.4763 244.444 82.2057 244.104 82.005C243.763 81.7997 243.385 81.697 242.97 81.697C242.554 81.697 242.176 81.7997 241.836 82.005C241.495 82.2057 241.224 82.4763 241.024 82.817C240.823 83.1577 240.723 83.5357 240.723 83.951V87.969C240.723 88.3797 240.823 88.7553 241.024 89.096C241.224 89.4367 241.495 89.7097 241.836 89.915C242.176 90.1157 242.554 90.216 242.97 90.216ZM248.785 89.88V88.683H249.982V89.88H248.785ZM248.792 85.757V84.56H249.989V85.757H248.792ZM255.698 91.21C255.078 91.21 254.518 91.0653 254.018 90.776C253.524 90.4867 253.132 90.0947 252.842 89.6C252.553 89.1007 252.408 88.5407 252.408 87.92V84C252.408 83.3793 252.553 82.8217 252.842 82.327C253.132 81.8277 253.524 81.4333 254.018 81.144C254.518 80.8547 255.078 80.71 255.698 80.71C256.319 80.71 256.877 80.8547 257.371 81.144C257.871 81.4333 258.265 81.8277 258.554 82.327C258.844 82.8217 258.988 83.3793 258.988 84V87.92C258.988 88.5407 258.844 89.1007 258.554 89.6C258.265 90.0947 257.871 90.4867 257.371 90.776C256.877 91.0653 256.319 91.21 255.698 91.21ZM255.698 90.216C256.114 90.216 256.492 90.1157 256.832 89.915C257.173 89.7097 257.444 89.4367 257.644 89.096C257.845 88.7553 257.945 88.3797 257.945 87.969V83.951C257.945 83.5357 257.845 83.1577 257.644 82.817C257.444 82.4763 257.173 82.2057 256.832 82.005C256.492 81.7997 256.114 81.697 255.698 81.697C255.283 81.697 254.905 81.7997 254.564 82.005C254.224 82.2057 253.953 82.4763 253.752 82.817C253.552 83.1577 253.451 83.5357 253.451 83.951V87.969C253.451 88.3797 253.552 88.7553 253.752 89.096C253.953 89.4367 254.224 89.7097 254.564 89.915C254.905 90.1157 255.283 90.216 255.698 90.216ZM264.243 91.21C263.622 91.21 263.062 91.0653 262.563 90.776C262.068 90.4867 261.676 90.0947 261.387 89.6C261.098 89.1007 260.953 88.5407 260.953 87.92V84C260.953 83.3793 261.098 82.8217 261.387 82.327C261.676 81.8277 262.068 81.4333 262.563 81.144C263.062 80.8547 263.622 80.71 264.243 80.71C264.864 80.71 265.421 80.8547 265.916 81.144C266.415 81.4333 266.81 81.8277 267.099 82.327C267.388 82.8217 267.533 83.3793 267.533 84V87.92C267.533 88.5407 267.388 89.1007 267.099 89.6C266.81 90.0947 266.415 90.4867 265.916 90.776C265.421 91.0653 264.864 91.21 264.243 91.21ZM264.243 90.216C264.658 90.216 265.036 90.1157 265.377 89.915C265.718 89.7097 265.988 89.4367 266.189 89.096C266.39 88.7553 266.49 88.3797 266.49 87.969V83.951C266.49 83.5357 266.39 83.1577 266.189 82.817C265.988 82.4763 265.718 82.2057 265.377 82.005C265.036 81.7997 264.658 81.697 264.243 81.697C263.828 81.697 263.45 81.7997 263.109 82.005C262.768 82.2057 262.498 82.4763 262.297 82.817C262.096 83.1577 261.996 83.5357 261.996 83.951V87.969C261.996 88.3797 262.096 88.7553 262.297 89.096C262.498 89.4367 262.768 89.7097 263.109 89.915C263.45 90.1157 263.828 90.216 264.243 90.216Z" fill="#1E1E1E"></path><rect x="204" y="110" width="94.7763" height="34" rx="3" fill="#6DEFA8"></rect><path d="M238.027 132V123.068L236.13 124.209V123.054L238.027 121.92H239.07V132H238.027ZM243.482 132V123.068L241.585 124.209V123.054L243.482 121.92H244.525V132H243.482ZM247.74 130.88V129.683H248.937V130.88H247.74ZM247.747 126.757V125.56H248.944V126.757H247.747ZM254.653 132.21C254.033 132.21 253.473 132.065 252.973 131.776C252.479 131.487 252.087 131.095 251.797 130.6C251.508 130.101 251.363 129.541 251.363 128.92V125C251.363 124.379 251.508 123.822 251.797 123.327C252.087 122.828 252.479 122.433 252.973 122.144C253.473 121.855 254.033 121.71 254.653 121.71C255.274 121.71 255.832 121.855 256.326 122.144C256.826 122.433 257.22 122.828 257.509 123.327C257.799 123.822 257.943 124.379 257.943 125V128.92C257.943 129.541 257.799 130.101 257.509 130.6C257.22 131.095 256.826 131.487 256.326 131.776C255.832 132.065 255.274 132.21 254.653 132.21ZM254.653 131.216C255.069 131.216 255.447 131.116 255.787 130.915C256.128 130.71 256.399 130.437 256.599 130.096C256.8 129.755 256.9 129.38 256.9 128.969V124.951C256.9 124.536 256.8 124.158 256.599 123.817C256.399 123.476 256.128 123.206 255.787 123.005C255.447 122.8 255.069 122.697 254.653 122.697C254.238 122.697 253.86 122.8 253.519 123.005C253.179 123.206 252.908 123.476 252.707 123.817C252.507 124.158 252.406 124.536 252.406 124.951V128.969C252.406 129.38 252.507 129.755 252.707 130.096C252.908 130.437 253.179 130.71 253.519 130.915C253.86 131.116 254.238 131.216 254.653 131.216ZM263.198 132.21C262.578 132.21 262.018 132.065 261.518 131.776C261.024 131.487 260.632 131.095 260.342 130.6C260.053 130.101 259.908 129.541 259.908 128.92V125C259.908 124.379 260.053 123.822 260.342 123.327C260.632 122.828 261.024 122.433 261.518 122.144C262.018 121.855 262.578 121.71 263.198 121.71C263.819 121.71 264.377 121.855 264.871 122.144C265.371 122.433 265.765 122.828 266.054 123.327C266.344 123.822 266.488 124.379 266.488 125V128.92C266.488 129.541 266.344 130.101 266.054 130.6C265.765 131.095 265.371 131.487 264.871 131.776C264.377 132.065 263.819 132.21 263.198 132.21ZM263.198 131.216C263.614 131.216 263.992 131.116 264.332 130.915C264.673 130.71 264.944 130.437 265.144 130.096C265.345 129.755 265.445 129.38 265.445 128.969V124.951C265.445 124.536 265.345 124.158 265.144 123.817C264.944 123.476 264.673 123.206 264.332 123.005C263.992 122.8 263.614 122.697 263.198 122.697C262.783 122.697 262.405 122.8 262.064 123.005C261.724 123.206 261.453 123.476 261.252 123.817C261.052 124.158 260.951 124.536 260.951 124.951V128.969C260.951 129.38 261.052 129.755 261.252 130.096C261.453 130.437 261.724 130.71 262.064 130.915C262.405 131.116 262.783 131.216 263.198 131.216Z" fill="#1E1E1E"></path><rect x="204" y="151" width="94.7763" height="34" rx="3" fill="#6DEFA8"></rect><path d="M236.762 173V164.068L234.865 165.209V164.054L236.762 162.92H237.805V173H236.762ZM240.18 172.993L240.187 172.055L244.744 167.939C245.136 167.584 245.395 167.248 245.521 166.931C245.652 166.609 245.717 166.273 245.717 165.923C245.717 165.508 245.619 165.132 245.423 164.796C245.227 164.46 244.963 164.194 244.632 163.998C244.301 163.797 243.93 163.697 243.519 163.697C243.09 163.697 242.707 163.8 242.371 164.005C242.035 164.21 241.769 164.481 241.573 164.817C241.382 165.153 241.288 165.519 241.293 165.916H240.243C240.243 165.305 240.388 164.756 240.677 164.271C240.966 163.786 241.358 163.405 241.853 163.13C242.348 162.85 242.908 162.71 243.533 162.71C244.144 162.71 244.693 162.855 245.178 163.144C245.668 163.429 246.053 163.816 246.333 164.306C246.618 164.791 246.76 165.333 246.76 165.93C246.76 166.35 246.709 166.721 246.606 167.043C246.508 167.36 246.352 167.657 246.137 167.932C245.927 168.203 245.659 168.483 245.332 168.772L241.286 172.426L241.125 172.006H246.76V172.993H240.18ZM249.004 171.88V170.683H250.201V171.88H249.004ZM249.011 167.757V166.56H250.208V167.757H249.011ZM255.918 173.21C255.297 173.21 254.737 173.065 254.238 172.776C253.743 172.487 253.351 172.095 253.062 171.6C252.773 171.101 252.628 170.541 252.628 169.92V166C252.628 165.379 252.773 164.822 253.062 164.327C253.351 163.828 253.743 163.433 254.238 163.144C254.737 162.855 255.297 162.71 255.918 162.71C256.539 162.71 257.096 162.855 257.591 163.144C258.09 163.433 258.485 163.828 258.774 164.327C259.063 164.822 259.208 165.379 259.208 166V169.92C259.208 170.541 259.063 171.101 258.774 171.6C258.485 172.095 258.09 172.487 257.591 172.776C257.096 173.065 256.539 173.21 255.918 173.21ZM255.918 172.216C256.333 172.216 256.711 172.116 257.052 171.915C257.393 171.71 257.663 171.437 257.864 171.096C258.065 170.755 258.165 170.38 258.165 169.969V165.951C258.165 165.536 258.065 165.158 257.864 164.817C257.663 164.476 257.393 164.206 257.052 164.005C256.711 163.8 256.333 163.697 255.918 163.697C255.503 163.697 255.125 163.8 254.784 164.005C254.443 164.206 254.173 164.476 253.972 164.817C253.771 165.158 253.671 165.536 253.671 165.951V169.969C253.671 170.38 253.771 170.755 253.972 171.096C254.173 171.437 254.443 171.71 254.784 171.915C255.125 172.116 255.503 172.216 255.918 172.216ZM264.463 173.21C263.842 173.21 263.282 173.065 262.783 172.776C262.288 172.487 261.896 172.095 261.607 171.6C261.318 171.101 261.173 170.541 261.173 169.92V166C261.173 165.379 261.318 164.822 261.607 164.327C261.896 163.828 262.288 163.433 262.783 163.144C263.282 162.855 263.842 162.71 264.463 162.71C265.084 162.71 265.641 162.855 266.136 163.144C266.635 163.433 267.03 163.828 267.319 164.327C267.608 164.822 267.753 165.379 267.753 166V169.92C267.753 170.541 267.608 171.101 267.319 171.6C267.03 172.095 266.635 172.487 266.136 172.776C265.641 173.065 265.084 173.21 264.463 173.21ZM264.463 172.216C264.878 172.216 265.256 172.116 265.597 171.915C265.938 171.71 266.208 171.437 266.409 171.096C266.61 170.755 266.71 170.38 266.71 169.969V165.951C266.71 165.536 266.61 165.158 266.409 164.817C266.208 164.476 265.938 164.206 265.597 164.005C265.256 163.8 264.878 163.697 264.463 163.697C264.048 163.697 263.67 163.8 263.329 164.005C262.988 164.206 262.718 164.476 262.517 164.817C262.316 165.158 262.216 165.536 262.216 165.951V169.969C262.216 170.38 262.316 170.755 262.517 171.096C262.718 171.437 262.988 171.71 263.329 171.915C263.67 172.116 264.048 172.216 264.463 172.216Z" fill="#1E1E1E"></path><rect x="204" y="192" width="94.7763" height="34" rx="3" fill="#6DEFA8"></rect><path d="M236.885 214V205.068L234.988 206.209V205.054L236.885 203.92H237.928V214H236.885ZM243.292 214.203C242.793 214.203 242.333 214.114 241.913 213.937C241.493 213.76 241.131 213.508 240.828 213.181C240.525 212.85 240.303 212.455 240.163 211.998L241.143 211.704C241.311 212.203 241.586 212.581 241.969 212.838C242.356 213.095 242.793 213.218 243.278 213.209C243.726 213.2 244.111 213.099 244.433 212.908C244.76 212.717 245.009 212.451 245.182 212.11C245.355 211.769 245.441 211.375 245.441 210.927C245.441 210.241 245.24 209.69 244.839 209.275C244.442 208.855 243.917 208.645 243.264 208.645C243.082 208.645 242.891 208.671 242.69 208.722C242.489 208.769 242.303 208.836 242.13 208.925L241.612 208.106L245.532 204.487L245.7 204.907H240.562V203.92H246.386V204.921L242.97 208.183L242.956 207.777C243.656 207.688 244.272 207.768 244.804 208.015C245.336 208.262 245.751 208.64 246.05 209.149C246.353 209.653 246.505 210.246 246.505 210.927C246.505 211.571 246.365 212.14 246.085 212.635C245.81 213.125 245.429 213.51 244.944 213.79C244.459 214.065 243.908 214.203 243.292 214.203ZM248.881 212.88V211.683H250.078V212.88H248.881ZM248.888 208.757V207.56H250.085V208.757H248.888ZM255.795 214.21C255.174 214.21 254.614 214.065 254.115 213.776C253.62 213.487 253.228 213.095 252.939 212.6C252.65 212.101 252.505 211.541 252.505 210.92V207C252.505 206.379 252.65 205.822 252.939 205.327C253.228 204.828 253.62 204.433 254.115 204.144C254.614 203.855 255.174 203.71 255.795 203.71C256.416 203.71 256.973 203.855 257.468 204.144C257.967 204.433 258.362 204.828 258.651 205.327C258.94 205.822 259.085 206.379 259.085 207V210.92C259.085 211.541 258.94 212.101 258.651 212.6C258.362 213.095 257.967 213.487 257.468 213.776C256.973 214.065 256.416 214.21 255.795 214.21ZM255.795 213.216C256.21 213.216 256.588 213.116 256.929 212.915C257.27 212.71 257.54 212.437 257.741 212.096C257.942 211.755 258.042 211.38 258.042 210.969V206.951C258.042 206.536 257.942 206.158 257.741 205.817C257.54 205.476 257.27 205.206 256.929 205.005C256.588 204.8 256.21 204.697 255.795 204.697C255.38 204.697 255.002 204.8 254.661 205.005C254.32 205.206 254.05 205.476 253.849 205.817C253.648 206.158 253.548 206.536 253.548 206.951V210.969C253.548 211.38 253.648 211.755 253.849 212.096C254.05 212.437 254.32 212.71 254.661 212.915C255.002 213.116 255.38 213.216 255.795 213.216ZM264.34 214.21C263.719 214.21 263.159 214.065 262.66 213.776C262.165 213.487 261.773 213.095 261.484 212.6C261.194 212.101 261.05 211.541 261.05 210.92V207C261.05 206.379 261.194 205.822 261.484 205.327C261.773 204.828 262.165 204.433 262.66 204.144C263.159 203.855 263.719 203.71 264.34 203.71C264.96 203.71 265.518 203.855 266.013 204.144C266.512 204.433 266.906 204.828 267.196 205.327C267.485 205.822 267.63 206.379 267.63 207V210.92C267.63 211.541 267.485 212.101 267.196 212.6C266.906 213.095 266.512 213.487 266.013 213.776C265.518 214.065 264.96 214.21 264.34 214.21ZM264.34 213.216C264.755 213.216 265.133 213.116 265.474 212.915C265.814 212.71 266.085 212.437 266.286 212.096C266.486 211.755 266.587 211.38 266.587 210.969V206.951C266.587 206.536 266.486 206.158 266.286 205.817C266.085 205.476 265.814 205.206 265.474 205.005C265.133 204.8 264.755 204.697 264.34 204.697C263.924 204.697 263.546 204.8 263.206 205.005C262.865 205.206 262.594 205.476 262.394 205.817C262.193 206.158 262.093 206.536 262.093 206.951V210.969C262.093 211.38 262.193 211.755 262.394 212.096C262.594 212.437 262.865 212.71 263.206 212.915C263.546 213.116 263.924 213.216 264.34 213.216Z" fill="#1E1E1E"></path><rect x="204" y="233" width="94.7763" height="34" rx="3" fill="#6DEFA8"></rect><path d="M236.625 255V246.068L234.728 247.209V246.054L236.625 244.92H237.668V255H236.625ZM244.761 255V253.047H240.043V252.067L243.417 244.92H244.572L241.198 252.067H244.761V249.127H245.797V252.067H246.896V253.047H245.797V255H244.761ZM249.141 253.88V252.683H250.338V253.88H249.141ZM249.148 249.757V248.56H250.345V249.757H249.148ZM256.055 255.21C255.434 255.21 254.874 255.065 254.375 254.776C253.88 254.487 253.488 254.095 253.199 253.6C252.909 253.101 252.765 252.541 252.765 251.92V248C252.765 247.379 252.909 246.822 253.199 246.327C253.488 245.828 253.88 245.433 254.375 245.144C254.874 244.855 255.434 244.71 256.055 244.71C256.675 244.71 257.233 244.855 257.728 245.144C258.227 245.433 258.621 245.828 258.911 246.327C259.2 246.822 259.345 247.379 259.345 248V251.92C259.345 252.541 259.2 253.101 258.911 253.6C258.621 254.095 258.227 254.487 257.728 254.776C257.233 255.065 256.675 255.21 256.055 255.21ZM256.055 254.216C256.47 254.216 256.848 254.116 257.189 253.915C257.529 253.71 257.8 253.437 258.001 253.096C258.201 252.755 258.302 252.38 258.302 251.969V247.951C258.302 247.536 258.201 247.158 258.001 246.817C257.8 246.476 257.529 246.206 257.189 246.005C256.848 245.8 256.47 245.697 256.055 245.697C255.639 245.697 255.261 245.8 254.921 246.005C254.58 246.206 254.309 246.476 254.109 246.817C253.908 247.158 253.808 247.536 253.808 247.951V251.969C253.808 252.38 253.908 252.755 254.109 253.096C254.309 253.437 254.58 253.71 254.921 253.915C255.261 254.116 255.639 254.216 256.055 254.216ZM264.6 255.21C263.979 255.21 263.419 255.065 262.92 254.776C262.425 254.487 262.033 254.095 261.744 253.6C261.454 253.101 261.31 252.541 261.31 251.92V248C261.31 247.379 261.454 246.822 261.744 246.327C262.033 245.828 262.425 245.433 262.92 245.144C263.419 244.855 263.979 244.71 264.6 244.71C265.22 244.71 265.778 244.855 266.273 245.144C266.772 245.433 267.166 245.828 267.456 246.327C267.745 246.822 267.89 247.379 267.89 248V251.92C267.89 252.541 267.745 253.101 267.456 253.6C267.166 254.095 266.772 254.487 266.273 254.776C265.778 255.065 265.22 255.21 264.6 255.21ZM264.6 254.216C265.015 254.216 265.393 254.116 265.734 253.915C266.074 253.71 266.345 253.437 266.546 253.096C266.746 252.755 266.847 252.38 266.847 251.969V247.951C266.847 247.536 266.746 247.158 266.546 246.817C266.345 246.476 266.074 246.206 265.734 246.005C265.393 245.8 265.015 245.697 264.6 245.697C264.184 245.697 263.806 245.8 263.466 246.005C263.125 246.206 262.854 246.476 262.654 246.817C262.453 247.158 262.353 247.536 262.353 247.951V251.969C262.353 252.38 262.453 252.755 262.654 253.096C262.854 253.437 263.125 253.71 263.466 253.915C263.806 254.116 264.184 254.216 264.6 254.216Z" fill="#1E1E1E"></path><rect x="204" y="274" width="94.7763" height="34" rx="3" fill="#6DEFA8"></rect><path d="M236.714 296V287.068L234.817 288.209V287.054L236.714 285.92H237.757V296H236.714ZM243.387 296.21C242.864 296.21 242.381 296.103 241.938 295.888C241.495 295.673 241.117 295.377 240.804 294.999C240.491 294.621 240.267 294.187 240.132 293.697L241.119 293.431C241.208 293.795 241.369 294.11 241.602 294.376C241.835 294.637 242.108 294.84 242.421 294.985C242.738 295.13 243.07 295.202 243.415 295.202C243.863 295.202 244.264 295.095 244.619 294.88C244.978 294.661 245.263 294.371 245.473 294.012C245.683 293.653 245.788 293.258 245.788 292.829C245.788 292.386 245.678 291.987 245.459 291.632C245.24 291.273 244.95 290.988 244.591 290.778C244.232 290.568 243.84 290.463 243.415 290.463C242.939 290.463 242.528 290.568 242.183 290.778C241.838 290.983 241.562 291.242 241.357 291.555L240.419 291.163L240.727 285.92H246.11V286.907H241.182L241.693 286.424L241.42 290.897L241.161 290.554C241.45 290.223 241.8 289.964 242.211 289.777C242.622 289.59 243.053 289.497 243.506 289.497C244.127 289.497 244.687 289.646 245.186 289.945C245.685 290.239 246.082 290.638 246.376 291.142C246.67 291.646 246.817 292.208 246.817 292.829C246.817 293.445 246.661 294.01 246.348 294.523C246.035 295.032 245.62 295.44 245.102 295.748C244.584 296.056 244.012 296.21 243.387 296.21ZM249.052 294.88V293.683H250.249V294.88H249.052ZM249.059 290.757V289.56H250.256V290.757H249.059ZM255.966 296.21C255.345 296.21 254.785 296.065 254.286 295.776C253.791 295.487 253.399 295.095 253.11 294.6C252.82 294.101 252.676 293.541 252.676 292.92V289C252.676 288.379 252.82 287.822 253.11 287.327C253.399 286.828 253.791 286.433 254.286 286.144C254.785 285.855 255.345 285.71 255.966 285.71C256.586 285.71 257.144 285.855 257.639 286.144C258.138 286.433 258.532 286.828 258.822 287.327C259.111 287.822 259.256 288.379 259.256 289V292.92C259.256 293.541 259.111 294.101 258.822 294.6C258.532 295.095 258.138 295.487 257.639 295.776C257.144 296.065 256.586 296.21 255.966 296.21ZM255.966 295.216C256.381 295.216 256.759 295.116 257.1 294.915C257.44 294.71 257.711 294.437 257.912 294.096C258.112 293.755 258.213 293.38 258.213 292.969V288.951C258.213 288.536 258.112 288.158 257.912 287.817C257.711 287.476 257.44 287.206 257.1 287.005C256.759 286.8 256.381 286.697 255.966 286.697C255.55 286.697 255.172 286.8 254.832 287.005C254.491 287.206 254.22 287.476 254.02 287.817C253.819 288.158 253.719 288.536 253.719 288.951V292.969C253.719 293.38 253.819 293.755 254.02 294.096C254.22 294.437 254.491 294.71 254.832 294.915C255.172 295.116 255.55 295.216 255.966 295.216ZM264.511 296.21C263.89 296.21 263.33 296.065 262.831 295.776C262.336 295.487 261.944 295.095 261.655 294.6C261.365 294.101 261.221 293.541 261.221 292.92V289C261.221 288.379 261.365 287.822 261.655 287.327C261.944 286.828 262.336 286.433 262.831 286.144C263.33 285.855 263.89 285.71 264.511 285.71C265.131 285.71 265.689 285.855 266.184 286.144C266.683 286.433 267.077 286.828 267.367 287.327C267.656 287.822 267.801 288.379 267.801 289V292.92C267.801 293.541 267.656 294.101 267.367 294.6C267.077 295.095 266.683 295.487 266.184 295.776C265.689 296.065 265.131 296.21 264.511 296.21ZM264.511 295.216C264.926 295.216 265.304 295.116 265.645 294.915C265.985 294.71 266.256 294.437 266.457 294.096C266.657 293.755 266.758 293.38 266.758 292.969V288.951C266.758 288.536 266.657 288.158 266.457 287.817C266.256 287.476 265.985 287.206 265.645 287.005C265.304 286.8 264.926 286.697 264.511 286.697C264.095 286.697 263.717 286.8 263.377 287.005C263.036 287.206 262.765 287.476 262.565 287.817C262.364 288.158 262.264 288.536 262.264 288.951V292.969C262.264 293.38 262.364 293.755 262.565 294.096C262.765 294.437 263.036 294.71 263.377 294.915C263.717 295.116 264.095 295.216 264.511 295.216Z" fill="#1E1E1E"></path><rect x="102" y="28" width="94.7763" height="34" rx="3" fill="#6DEFA8"></rect><path d="M138.202 39.717C138.832 39.717 139.403 39.871 139.917 40.179C140.435 40.4823 140.845 40.8977 141.149 41.425C141.457 41.9477 141.611 42.538 141.611 43.196V46.689C141.611 47.3657 141.459 47.97 141.156 48.502C140.852 49.0293 140.437 49.447 139.91 49.755C139.387 50.0583 138.792 50.21 138.125 50.21C137.551 50.21 137.016 50.084 136.522 49.832C136.032 49.58 135.63 49.2277 135.318 48.775L136.109 48.124C136.323 48.46 136.608 48.7283 136.963 48.929C137.317 49.1297 137.705 49.23 138.125 49.23C138.596 49.23 139.016 49.1157 139.385 48.887C139.753 48.6583 140.043 48.3597 140.253 47.991C140.463 47.6177 140.568 47.214 140.568 46.78V44.582L140.827 44.876C140.533 45.338 140.145 45.7113 139.665 45.996C139.189 46.2807 138.668 46.423 138.104 46.423C137.478 46.423 136.916 46.276 136.417 45.982C135.917 45.6833 135.521 45.282 135.227 44.778C134.933 44.274 134.786 43.7093 134.786 43.084C134.786 42.4633 134.94 41.8987 135.248 41.39C135.56 40.8813 135.973 40.4753 136.487 40.172C137.005 39.8687 137.576 39.717 138.202 39.717ZM138.202 40.718C137.763 40.718 137.362 40.823 136.998 41.033C136.638 41.243 136.351 41.5277 136.137 41.887C135.927 42.2463 135.822 42.6453 135.822 43.084C135.822 43.5227 135.927 43.924 136.137 44.288C136.351 44.6473 136.638 44.9343 136.998 45.149C137.357 45.359 137.756 45.464 138.195 45.464C138.633 45.464 139.032 45.359 139.392 45.149C139.751 44.9343 140.036 44.6473 140.246 44.288C140.46 43.924 140.568 43.5227 140.568 43.084C140.568 42.65 140.463 42.2533 140.253 41.894C140.043 41.5347 139.758 41.25 139.399 41.04C139.039 40.8253 138.64 40.718 138.202 40.718ZM144.125 48.88V47.683H145.322V48.88H144.125ZM144.132 44.757V43.56H145.329V44.757H144.132ZM151.039 50.21C150.418 50.21 149.858 50.0653 149.359 49.776C148.864 49.4867 148.472 49.0947 148.183 48.6C147.894 48.1007 147.749 47.5407 147.749 46.92V43C147.749 42.3793 147.894 41.8217 148.183 41.327C148.472 40.8277 148.864 40.4333 149.359 40.144C149.858 39.8547 150.418 39.71 151.039 39.71C151.66 39.71 152.217 39.8547 152.712 40.144C153.211 40.4333 153.606 40.8277 153.895 41.327C154.184 41.8217 154.329 42.3793 154.329 43V46.92C154.329 47.5407 154.184 48.1007 153.895 48.6C153.606 49.0947 153.211 49.4867 152.712 49.776C152.217 50.0653 151.66 50.21 151.039 50.21ZM151.039 49.216C151.454 49.216 151.832 49.1157 152.173 48.915C152.514 48.7097 152.784 48.4367 152.985 48.096C153.186 47.7553 153.286 47.3797 153.286 46.969V42.951C153.286 42.5357 153.186 42.1577 152.985 41.817C152.784 41.4763 152.514 41.2057 152.173 41.005C151.832 40.7997 151.454 40.697 151.039 40.697C150.624 40.697 150.246 40.7997 149.905 41.005C149.564 41.2057 149.294 41.4763 149.093 41.817C148.892 42.1577 148.792 42.5357 148.792 42.951V46.969C148.792 47.3797 148.892 47.7553 149.093 48.096C149.294 48.4367 149.564 48.7097 149.905 48.915C150.246 49.1157 150.624 49.216 151.039 49.216ZM159.584 50.21C158.963 50.21 158.403 50.0653 157.904 49.776C157.409 49.4867 157.017 49.0947 156.728 48.6C156.439 48.1007 156.294 47.5407 156.294 46.92V43C156.294 42.3793 156.439 41.8217 156.728 41.327C157.017 40.8277 157.409 40.4333 157.904 40.144C158.403 39.8547 158.963 39.71 159.584 39.71C160.205 39.71 160.762 39.8547 161.257 40.144C161.756 40.4333 162.151 40.8277 162.44 41.327C162.729 41.8217 162.874 42.3793 162.874 43V46.92C162.874 47.5407 162.729 48.1007 162.44 48.6C162.151 49.0947 161.756 49.4867 161.257 49.776C160.762 50.0653 160.205 50.21 159.584 50.21ZM159.584 49.216C159.999 49.216 160.377 49.1157 160.718 48.915C161.059 48.7097 161.329 48.4367 161.53 48.096C161.731 47.7553 161.831 47.3797 161.831 46.969V42.951C161.831 42.5357 161.731 42.1577 161.53 41.817C161.329 41.4763 161.059 41.2057 160.718 41.005C160.377 40.7997 159.999 40.697 159.584 40.697C159.169 40.697 158.791 40.7997 158.45 41.005C158.109 41.2057 157.839 41.4763 157.638 41.817C157.437 42.1577 157.337 42.5357 157.337 42.951V46.969C157.337 47.3797 157.437 47.7553 157.638 48.096C157.839 48.4367 158.109 48.7097 158.45 48.915C158.791 49.1157 159.169 49.216 159.584 49.216Z" fill="#1E1E1E"></path><rect x="102" y="69" width="94.7763" height="34" rx="3" fill="#6DEFA8"></rect><path d="M133.982 91V82.068L132.085 83.209V82.054L133.982 80.92H135.025V91H133.982ZM140.97 91.21C140.349 91.21 139.789 91.0653 139.29 90.776C138.795 90.4867 138.403 90.0947 138.114 89.6C137.824 89.1007 137.68 88.5407 137.68 87.92V84C137.68 83.3793 137.824 82.8217 138.114 82.327C138.403 81.8277 138.795 81.4333 139.29 81.144C139.789 80.8547 140.349 80.71 140.97 80.71C141.59 80.71 142.148 80.8547 142.643 81.144C143.142 81.4333 143.536 81.8277 143.826 82.327C144.115 82.8217 144.26 83.3793 144.26 84V87.92C144.26 88.5407 144.115 89.1007 143.826 89.6C143.536 90.0947 143.142 90.4867 142.643 90.776C142.148 91.0653 141.59 91.21 140.97 91.21ZM140.97 90.216C141.385 90.216 141.763 90.1157 142.104 89.915C142.444 89.7097 142.715 89.4367 142.916 89.096C143.116 88.7553 143.217 88.3797 143.217 87.969V83.951C143.217 83.5357 143.116 83.1577 142.916 82.817C142.715 82.4763 142.444 82.2057 142.104 82.005C141.763 81.7997 141.385 81.697 140.97 81.697C140.554 81.697 140.176 81.7997 139.836 82.005C139.495 82.2057 139.224 82.4763 139.024 82.817C138.823 83.1577 138.723 83.5357 138.723 83.951V87.969C138.723 88.3797 138.823 88.7553 139.024 89.096C139.224 89.4367 139.495 89.7097 139.836 89.915C140.176 90.1157 140.554 90.216 140.97 90.216ZM146.785 89.88V88.683H147.982V89.88H146.785ZM146.792 85.757V84.56H147.989V85.757H146.792ZM153.698 91.21C153.078 91.21 152.518 91.0653 152.018 90.776C151.524 90.4867 151.132 90.0947 150.842 89.6C150.553 89.1007 150.408 88.5407 150.408 87.92V84C150.408 83.3793 150.553 82.8217 150.842 82.327C151.132 81.8277 151.524 81.4333 152.018 81.144C152.518 80.8547 153.078 80.71 153.698 80.71C154.319 80.71 154.877 80.8547 155.371 81.144C155.871 81.4333 156.265 81.8277 156.554 82.327C156.844 82.8217 156.988 83.3793 156.988 84V87.92C156.988 88.5407 156.844 89.1007 156.554 89.6C156.265 90.0947 155.871 90.4867 155.371 90.776C154.877 91.0653 154.319 91.21 153.698 91.21ZM153.698 90.216C154.114 90.216 154.492 90.1157 154.832 89.915C155.173 89.7097 155.444 89.4367 155.644 89.096C155.845 88.7553 155.945 88.3797 155.945 87.969V83.951C155.945 83.5357 155.845 83.1577 155.644 82.817C155.444 82.4763 155.173 82.2057 154.832 82.005C154.492 81.7997 154.114 81.697 153.698 81.697C153.283 81.697 152.905 81.7997 152.564 82.005C152.224 82.2057 151.953 82.4763 151.752 82.817C151.552 83.1577 151.451 83.5357 151.451 83.951V87.969C151.451 88.3797 151.552 88.7553 151.752 89.096C151.953 89.4367 152.224 89.7097 152.564 89.915C152.905 90.1157 153.283 90.216 153.698 90.216ZM162.243 91.21C161.622 91.21 161.062 91.0653 160.563 90.776C160.068 90.4867 159.676 90.0947 159.387 89.6C159.098 89.1007 158.953 88.5407 158.953 87.92V84C158.953 83.3793 159.098 82.8217 159.387 82.327C159.676 81.8277 160.068 81.4333 160.563 81.144C161.062 80.8547 161.622 80.71 162.243 80.71C162.864 80.71 163.421 80.8547 163.916 81.144C164.415 81.4333 164.81 81.8277 165.099 82.327C165.388 82.8217 165.533 83.3793 165.533 84V87.92C165.533 88.5407 165.388 89.1007 165.099 89.6C164.81 90.0947 164.415 90.4867 163.916 90.776C163.421 91.0653 162.864 91.21 162.243 91.21ZM162.243 90.216C162.658 90.216 163.036 90.1157 163.377 89.915C163.718 89.7097 163.988 89.4367 164.189 89.096C164.39 88.7553 164.49 88.3797 164.49 87.969V83.951C164.49 83.5357 164.39 83.1577 164.189 82.817C163.988 82.4763 163.718 82.2057 163.377 82.005C163.036 81.7997 162.658 81.697 162.243 81.697C161.828 81.697 161.45 81.7997 161.109 82.005C160.768 82.2057 160.498 82.4763 160.297 82.817C160.096 83.1577 159.996 83.5357 159.996 83.951V87.969C159.996 88.3797 160.096 88.7553 160.297 89.096C160.498 89.4367 160.768 89.7097 161.109 89.915C161.45 90.1157 161.828 90.216 162.243 90.216Z" fill="#1E1E1E"></path><rect x="102.5" y="110.5" width="93.7763" height="33" rx="2.5" fill="#FFE33C" stroke="#242424"></rect><path d="M136.027 132V123.068L134.13 124.209V123.054L136.027 121.92H137.07V132H136.027ZM141.482 132V123.068L139.585 124.209V123.054L141.482 121.92H142.525V132H141.482ZM145.74 130.88V129.683H146.937V130.88H145.74ZM145.747 126.757V125.56H146.944V126.757H145.747ZM152.653 132.21C152.033 132.21 151.473 132.065 150.973 131.776C150.479 131.487 150.087 131.095 149.797 130.6C149.508 130.101 149.363 129.541 149.363 128.92V125C149.363 124.379 149.508 123.822 149.797 123.327C150.087 122.828 150.479 122.433 150.973 122.144C151.473 121.855 152.033 121.71 152.653 121.71C153.274 121.71 153.832 121.855 154.326 122.144C154.826 122.433 155.22 122.828 155.509 123.327C155.799 123.822 155.943 124.379 155.943 125V128.92C155.943 129.541 155.799 130.101 155.509 130.6C155.22 131.095 154.826 131.487 154.326 131.776C153.832 132.065 153.274 132.21 152.653 132.21ZM152.653 131.216C153.069 131.216 153.447 131.116 153.787 130.915C154.128 130.71 154.399 130.437 154.599 130.096C154.8 129.755 154.9 129.38 154.9 128.969V124.951C154.9 124.536 154.8 124.158 154.599 123.817C154.399 123.476 154.128 123.206 153.787 123.005C153.447 122.8 153.069 122.697 152.653 122.697C152.238 122.697 151.86 122.8 151.519 123.005C151.179 123.206 150.908 123.476 150.707 123.817C150.507 124.158 150.406 124.536 150.406 124.951V128.969C150.406 129.38 150.507 129.755 150.707 130.096C150.908 130.437 151.179 130.71 151.519 130.915C151.86 131.116 152.238 131.216 152.653 131.216ZM161.198 132.21C160.578 132.21 160.018 132.065 159.518 131.776C159.024 131.487 158.632 131.095 158.342 130.6C158.053 130.101 157.908 129.541 157.908 128.92V125C157.908 124.379 158.053 123.822 158.342 123.327C158.632 122.828 159.024 122.433 159.518 122.144C160.018 121.855 160.578 121.71 161.198 121.71C161.819 121.71 162.377 121.855 162.871 122.144C163.371 122.433 163.765 122.828 164.054 123.327C164.344 123.822 164.488 124.379 164.488 125V128.92C164.488 129.541 164.344 130.101 164.054 130.6C163.765 131.095 163.371 131.487 162.871 131.776C162.377 132.065 161.819 132.21 161.198 132.21ZM161.198 131.216C161.614 131.216 161.992 131.116 162.332 130.915C162.673 130.71 162.944 130.437 163.144 130.096C163.345 129.755 163.445 129.38 163.445 128.969V124.951C163.445 124.536 163.345 124.158 163.144 123.817C162.944 123.476 162.673 123.206 162.332 123.005C161.992 122.8 161.614 122.697 161.198 122.697C160.783 122.697 160.405 122.8 160.064 123.005C159.724 123.206 159.453 123.476 159.252 123.817C159.052 124.158 158.951 124.536 158.951 124.951V128.969C158.951 129.38 159.052 129.755 159.252 130.096C159.453 130.437 159.724 130.71 160.064 130.915C160.405 131.116 160.783 131.216 161.198 131.216Z" fill="#1E1E1E"></path><rect x="102" y="151" width="94.7763" height="34" rx="3" fill="#6DEFA8"></rect><path d="M134.762 173V164.068L132.865 165.209V164.054L134.762 162.92H135.805V173H134.762ZM138.18 172.993L138.187 172.055L142.744 167.939C143.136 167.584 143.395 167.248 143.521 166.931C143.652 166.609 143.717 166.273 143.717 165.923C143.717 165.508 143.619 165.132 143.423 164.796C143.227 164.46 142.963 164.194 142.632 163.998C142.301 163.797 141.93 163.697 141.519 163.697C141.09 163.697 140.707 163.8 140.371 164.005C140.035 164.21 139.769 164.481 139.573 164.817C139.382 165.153 139.288 165.519 139.293 165.916H138.243C138.243 165.305 138.388 164.756 138.677 164.271C138.966 163.786 139.358 163.405 139.853 163.13C140.348 162.85 140.908 162.71 141.533 162.71C142.144 162.71 142.693 162.855 143.178 163.144C143.668 163.429 144.053 163.816 144.333 164.306C144.618 164.791 144.76 165.333 144.76 165.93C144.76 166.35 144.709 166.721 144.606 167.043C144.508 167.36 144.352 167.657 144.137 167.932C143.927 168.203 143.659 168.483 143.332 168.772L139.286 172.426L139.125 172.006H144.76V172.993H138.18ZM147.004 171.88V170.683H148.201V171.88H147.004ZM147.011 167.757V166.56H148.208V167.757H147.011ZM153.918 173.21C153.297 173.21 152.737 173.065 152.238 172.776C151.743 172.487 151.351 172.095 151.062 171.6C150.773 171.101 150.628 170.541 150.628 169.92V166C150.628 165.379 150.773 164.822 151.062 164.327C151.351 163.828 151.743 163.433 152.238 163.144C152.737 162.855 153.297 162.71 153.918 162.71C154.539 162.71 155.096 162.855 155.591 163.144C156.09 163.433 156.485 163.828 156.774 164.327C157.063 164.822 157.208 165.379 157.208 166V169.92C157.208 170.541 157.063 171.101 156.774 171.6C156.485 172.095 156.09 172.487 155.591 172.776C155.096 173.065 154.539 173.21 153.918 173.21ZM153.918 172.216C154.333 172.216 154.711 172.116 155.052 171.915C155.393 171.71 155.663 171.437 155.864 171.096C156.065 170.755 156.165 170.38 156.165 169.969V165.951C156.165 165.536 156.065 165.158 155.864 164.817C155.663 164.476 155.393 164.206 155.052 164.005C154.711 163.8 154.333 163.697 153.918 163.697C153.503 163.697 153.125 163.8 152.784 164.005C152.443 164.206 152.173 164.476 151.972 164.817C151.771 165.158 151.671 165.536 151.671 165.951V169.969C151.671 170.38 151.771 170.755 151.972 171.096C152.173 171.437 152.443 171.71 152.784 171.915C153.125 172.116 153.503 172.216 153.918 172.216ZM162.463 173.21C161.842 173.21 161.282 173.065 160.783 172.776C160.288 172.487 159.896 172.095 159.607 171.6C159.318 171.101 159.173 170.541 159.173 169.92V166C159.173 165.379 159.318 164.822 159.607 164.327C159.896 163.828 160.288 163.433 160.783 163.144C161.282 162.855 161.842 162.71 162.463 162.71C163.084 162.71 163.641 162.855 164.136 163.144C164.635 163.433 165.03 163.828 165.319 164.327C165.608 164.822 165.753 165.379 165.753 166V169.92C165.753 170.541 165.608 171.101 165.319 171.6C165.03 172.095 164.635 172.487 164.136 172.776C163.641 173.065 163.084 173.21 162.463 173.21ZM162.463 172.216C162.878 172.216 163.256 172.116 163.597 171.915C163.938 171.71 164.208 171.437 164.409 171.096C164.61 170.755 164.71 170.38 164.71 169.969V165.951C164.71 165.536 164.61 165.158 164.409 164.817C164.208 164.476 163.938 164.206 163.597 164.005C163.256 163.8 162.878 163.697 162.463 163.697C162.048 163.697 161.67 163.8 161.329 164.005C160.988 164.206 160.718 164.476 160.517 164.817C160.316 165.158 160.216 165.536 160.216 165.951V169.969C160.216 170.38 160.316 170.755 160.517 171.096C160.718 171.437 160.988 171.71 161.329 171.915C161.67 172.116 162.048 172.216 162.463 172.216Z" fill="#1E1E1E"></path><rect x="102" y="192" width="94.7763" height="34" rx="3" fill="#6DEFA8"></rect><path d="M134.885 214V205.068L132.988 206.209V205.054L134.885 203.92H135.928V214H134.885ZM141.292 214.203C140.793 214.203 140.333 214.114 139.913 213.937C139.493 213.76 139.131 213.508 138.828 213.181C138.525 212.85 138.303 212.455 138.163 211.998L139.143 211.704C139.311 212.203 139.586 212.581 139.969 212.838C140.356 213.095 140.793 213.218 141.278 213.209C141.726 213.2 142.111 213.099 142.433 212.908C142.76 212.717 143.009 212.451 143.182 212.11C143.355 211.769 143.441 211.375 143.441 210.927C143.441 210.241 143.24 209.69 142.839 209.275C142.442 208.855 141.917 208.645 141.264 208.645C141.082 208.645 140.891 208.671 140.69 208.722C140.489 208.769 140.303 208.836 140.13 208.925L139.612 208.106L143.532 204.487L143.7 204.907H138.562V203.92H144.386V204.921L140.97 208.183L140.956 207.777C141.656 207.688 142.272 207.768 142.804 208.015C143.336 208.262 143.751 208.64 144.05 209.149C144.353 209.653 144.505 210.246 144.505 210.927C144.505 211.571 144.365 212.14 144.085 212.635C143.81 213.125 143.429 213.51 142.944 213.79C142.459 214.065 141.908 214.203 141.292 214.203ZM146.881 212.88V211.683H148.078V212.88H146.881ZM146.888 208.757V207.56H148.085V208.757H146.888ZM153.795 214.21C153.174 214.21 152.614 214.065 152.115 213.776C151.62 213.487 151.228 213.095 150.939 212.6C150.65 212.101 150.505 211.541 150.505 210.92V207C150.505 206.379 150.65 205.822 150.939 205.327C151.228 204.828 151.62 204.433 152.115 204.144C152.614 203.855 153.174 203.71 153.795 203.71C154.416 203.71 154.973 203.855 155.468 204.144C155.967 204.433 156.362 204.828 156.651 205.327C156.94 205.822 157.085 206.379 157.085 207V210.92C157.085 211.541 156.94 212.101 156.651 212.6C156.362 213.095 155.967 213.487 155.468 213.776C154.973 214.065 154.416 214.21 153.795 214.21ZM153.795 213.216C154.21 213.216 154.588 213.116 154.929 212.915C155.27 212.71 155.54 212.437 155.741 212.096C155.942 211.755 156.042 211.38 156.042 210.969V206.951C156.042 206.536 155.942 206.158 155.741 205.817C155.54 205.476 155.27 205.206 154.929 205.005C154.588 204.8 154.21 204.697 153.795 204.697C153.38 204.697 153.002 204.8 152.661 205.005C152.32 205.206 152.05 205.476 151.849 205.817C151.648 206.158 151.548 206.536 151.548 206.951V210.969C151.548 211.38 151.648 211.755 151.849 212.096C152.05 212.437 152.32 212.71 152.661 212.915C153.002 213.116 153.38 213.216 153.795 213.216ZM162.34 214.21C161.719 214.21 161.159 214.065 160.66 213.776C160.165 213.487 159.773 213.095 159.484 212.6C159.194 212.101 159.05 211.541 159.05 210.92V207C159.05 206.379 159.194 205.822 159.484 205.327C159.773 204.828 160.165 204.433 160.66 204.144C161.159 203.855 161.719 203.71 162.34 203.71C162.96 203.71 163.518 203.855 164.013 204.144C164.512 204.433 164.906 204.828 165.196 205.327C165.485 205.822 165.63 206.379 165.63 207V210.92C165.63 211.541 165.485 212.101 165.196 212.6C164.906 213.095 164.512 213.487 164.013 213.776C163.518 214.065 162.96 214.21 162.34 214.21ZM162.34 213.216C162.755 213.216 163.133 213.116 163.474 212.915C163.814 212.71 164.085 212.437 164.286 212.096C164.486 211.755 164.587 211.38 164.587 210.969V206.951C164.587 206.536 164.486 206.158 164.286 205.817C164.085 205.476 163.814 205.206 163.474 205.005C163.133 204.8 162.755 204.697 162.34 204.697C161.924 204.697 161.546 204.8 161.206 205.005C160.865 205.206 160.594 205.476 160.394 205.817C160.193 206.158 160.093 206.536 160.093 206.951V210.969C160.093 211.38 160.193 211.755 160.394 212.096C160.594 212.437 160.865 212.71 161.206 212.915C161.546 213.116 161.924 213.216 162.34 213.216Z" fill="#1E1E1E"></path><rect x="102" y="233" width="94.7763" height="34" rx="3" fill="#6DEFA8"></rect><path d="M134.625 255V246.068L132.728 247.209V246.054L134.625 244.92H135.668V255H134.625ZM142.761 255V253.047H138.043V252.067L141.417 244.92H142.572L139.198 252.067H142.761V249.127H143.797V252.067H144.896V253.047H143.797V255H142.761ZM147.141 253.88V252.683H148.338V253.88H147.141ZM147.148 249.757V248.56H148.345V249.757H147.148ZM154.055 255.21C153.434 255.21 152.874 255.065 152.375 254.776C151.88 254.487 151.488 254.095 151.199 253.6C150.909 253.101 150.765 252.541 150.765 251.92V248C150.765 247.379 150.909 246.822 151.199 246.327C151.488 245.828 151.88 245.433 152.375 245.144C152.874 244.855 153.434 244.71 154.055 244.71C154.675 244.71 155.233 244.855 155.728 245.144C156.227 245.433 156.621 245.828 156.911 246.327C157.2 246.822 157.345 247.379 157.345 248V251.92C157.345 252.541 157.2 253.101 156.911 253.6C156.621 254.095 156.227 254.487 155.728 254.776C155.233 255.065 154.675 255.21 154.055 255.21ZM154.055 254.216C154.47 254.216 154.848 254.116 155.189 253.915C155.529 253.71 155.8 253.437 156.001 253.096C156.201 252.755 156.302 252.38 156.302 251.969V247.951C156.302 247.536 156.201 247.158 156.001 246.817C155.8 246.476 155.529 246.206 155.189 246.005C154.848 245.8 154.47 245.697 154.055 245.697C153.639 245.697 153.261 245.8 152.921 246.005C152.58 246.206 152.309 246.476 152.109 246.817C151.908 247.158 151.808 247.536 151.808 247.951V251.969C151.808 252.38 151.908 252.755 152.109 253.096C152.309 253.437 152.58 253.71 152.921 253.915C153.261 254.116 153.639 254.216 154.055 254.216ZM162.6 255.21C161.979 255.21 161.419 255.065 160.92 254.776C160.425 254.487 160.033 254.095 159.744 253.6C159.454 253.101 159.31 252.541 159.31 251.92V248C159.31 247.379 159.454 246.822 159.744 246.327C160.033 245.828 160.425 245.433 160.92 245.144C161.419 244.855 161.979 244.71 162.6 244.71C163.22 244.71 163.778 244.855 164.273 245.144C164.772 245.433 165.166 245.828 165.456 246.327C165.745 246.822 165.89 247.379 165.89 248V251.92C165.89 252.541 165.745 253.101 165.456 253.6C165.166 254.095 164.772 254.487 164.273 254.776C163.778 255.065 163.22 255.21 162.6 255.21ZM162.6 254.216C163.015 254.216 163.393 254.116 163.734 253.915C164.074 253.71 164.345 253.437 164.546 253.096C164.746 252.755 164.847 252.38 164.847 251.969V247.951C164.847 247.536 164.746 247.158 164.546 246.817C164.345 246.476 164.074 246.206 163.734 246.005C163.393 245.8 163.015 245.697 162.6 245.697C162.184 245.697 161.806 245.8 161.466 246.005C161.125 246.206 160.854 246.476 160.654 246.817C160.453 247.158 160.353 247.536 160.353 247.951V251.969C160.353 252.38 160.453 252.755 160.654 253.096C160.854 253.437 161.125 253.71 161.466 253.915C161.806 254.116 162.184 254.216 162.6 254.216Z" fill="#1E1E1E"></path><rect x="102" y="274" width="94.7763" height="34" rx="3" fill="#6DEFA8"></rect><path d="M134.714 296V287.068L132.817 288.209V287.054L134.714 285.92H135.757V296H134.714ZM141.387 296.21C140.864 296.21 140.381 296.103 139.938 295.888C139.495 295.673 139.117 295.377 138.804 294.999C138.491 294.621 138.267 294.187 138.132 293.697L139.119 293.431C139.208 293.795 139.369 294.11 139.602 294.376C139.835 294.637 140.108 294.84 140.421 294.985C140.738 295.13 141.07 295.202 141.415 295.202C141.863 295.202 142.264 295.095 142.619 294.88C142.978 294.661 143.263 294.371 143.473 294.012C143.683 293.653 143.788 293.258 143.788 292.829C143.788 292.386 143.678 291.987 143.459 291.632C143.24 291.273 142.95 290.988 142.591 290.778C142.232 290.568 141.84 290.463 141.415 290.463C140.939 290.463 140.528 290.568 140.183 290.778C139.838 290.983 139.562 291.242 139.357 291.555L138.419 291.163L138.727 285.92H144.11V286.907H139.182L139.693 286.424L139.42 290.897L139.161 290.554C139.45 290.223 139.8 289.964 140.211 289.777C140.622 289.59 141.053 289.497 141.506 289.497C142.127 289.497 142.687 289.646 143.186 289.945C143.685 290.239 144.082 290.638 144.376 291.142C144.67 291.646 144.817 292.208 144.817 292.829C144.817 293.445 144.661 294.01 144.348 294.523C144.035 295.032 143.62 295.44 143.102 295.748C142.584 296.056 142.012 296.21 141.387 296.21ZM147.052 294.88V293.683H148.249V294.88H147.052ZM147.059 290.757V289.56H148.256V290.757H147.059ZM153.966 296.21C153.345 296.21 152.785 296.065 152.286 295.776C151.791 295.487 151.399 295.095 151.11 294.6C150.82 294.101 150.676 293.541 150.676 292.92V289C150.676 288.379 150.82 287.822 151.11 287.327C151.399 286.828 151.791 286.433 152.286 286.144C152.785 285.855 153.345 285.71 153.966 285.71C154.586 285.71 155.144 285.855 155.639 286.144C156.138 286.433 156.532 286.828 156.822 287.327C157.111 287.822 157.256 288.379 157.256 289V292.92C157.256 293.541 157.111 294.101 156.822 294.6C156.532 295.095 156.138 295.487 155.639 295.776C155.144 296.065 154.586 296.21 153.966 296.21ZM153.966 295.216C154.381 295.216 154.759 295.116 155.1 294.915C155.44 294.71 155.711 294.437 155.912 294.096C156.112 293.755 156.213 293.38 156.213 292.969V288.951C156.213 288.536 156.112 288.158 155.912 287.817C155.711 287.476 155.44 287.206 155.1 287.005C154.759 286.8 154.381 286.697 153.966 286.697C153.55 286.697 153.172 286.8 152.832 287.005C152.491 287.206 152.22 287.476 152.02 287.817C151.819 288.158 151.719 288.536 151.719 288.951V292.969C151.719 293.38 151.819 293.755 152.02 294.096C152.22 294.437 152.491 294.71 152.832 294.915C153.172 295.116 153.55 295.216 153.966 295.216ZM162.511 296.21C161.89 296.21 161.33 296.065 160.831 295.776C160.336 295.487 159.944 295.095 159.655 294.6C159.365 294.101 159.221 293.541 159.221 292.92V289C159.221 288.379 159.365 287.822 159.655 287.327C159.944 286.828 160.336 286.433 160.831 286.144C161.33 285.855 161.89 285.71 162.511 285.71C163.131 285.71 163.689 285.855 164.184 286.144C164.683 286.433 165.077 286.828 165.367 287.327C165.656 287.822 165.801 288.379 165.801 289V292.92C165.801 293.541 165.656 294.101 165.367 294.6C165.077 295.095 164.683 295.487 164.184 295.776C163.689 296.065 163.131 296.21 162.511 296.21ZM162.511 295.216C162.926 295.216 163.304 295.116 163.645 294.915C163.985 294.71 164.256 294.437 164.457 294.096C164.657 293.755 164.758 293.38 164.758 292.969V288.951C164.758 288.536 164.657 288.158 164.457 287.817C164.256 287.476 163.985 287.206 163.645 287.005C163.304 286.8 162.926 286.697 162.511 286.697C162.095 286.697 161.717 286.8 161.377 287.005C161.036 287.206 160.765 287.476 160.565 287.817C160.364 288.158 160.264 288.536 160.264 288.951V292.969C160.264 293.38 160.364 293.755 160.565 294.096C160.765 294.437 161.036 294.71 161.377 294.915C161.717 295.116 162.095 295.216 162.511 295.216Z" fill="#1E1E1E"></path><rect x="102" y="315" width="94.7763" height="34" rx="3" fill="#6DEFA8"></rect><path d="M133.913 337V328.068L132.016 329.209V328.054L133.913 326.92H134.956V337H133.913ZM141.02 337.21C140.39 337.21 139.816 337.058 139.298 336.755C138.785 336.447 138.374 336.032 138.066 335.509C137.763 334.982 137.611 334.389 137.611 333.731V330.238C137.611 329.561 137.763 328.959 138.066 328.432C138.37 327.9 138.783 327.482 139.305 327.179C139.833 326.871 140.43 326.717 141.097 326.717C141.671 326.717 142.203 326.843 142.693 327.095C143.188 327.347 143.592 327.699 143.904 328.152L143.113 328.803C142.899 328.467 142.614 328.199 142.259 327.998C141.905 327.797 141.517 327.697 141.097 327.697C140.626 327.697 140.206 327.811 139.837 328.04C139.469 328.269 139.179 328.57 138.969 328.943C138.759 329.312 138.654 329.713 138.654 330.147V332.345L138.395 332.051C138.689 331.589 139.074 331.216 139.55 330.931C140.031 330.646 140.554 330.504 141.118 330.504C141.744 330.504 142.306 330.653 142.805 330.952C143.305 331.246 143.701 331.645 143.995 332.149C144.289 332.653 144.436 333.218 144.436 333.843C144.436 334.464 144.28 335.028 143.967 335.537C143.659 336.046 143.246 336.452 142.728 336.755C142.215 337.058 141.646 337.21 141.02 337.21ZM141.02 336.209C141.459 336.209 141.858 336.104 142.217 335.894C142.581 335.684 142.868 335.399 143.078 335.04C143.293 334.681 143.4 334.282 143.4 333.843C143.4 333.404 143.293 333.005 143.078 332.646C142.868 332.282 142.584 331.995 142.224 331.785C141.865 331.57 141.466 331.463 141.027 331.463C140.589 331.463 140.19 331.57 139.83 331.785C139.471 331.995 139.184 332.282 138.969 332.646C138.759 333.005 138.654 333.404 138.654 333.843C138.654 334.277 138.759 334.674 138.969 335.033C139.179 335.392 139.464 335.679 139.823 335.894C140.183 336.104 140.582 336.209 141.02 336.209ZM146.853 335.88V334.683H148.05V335.88H146.853ZM146.86 331.757V330.56H148.057V331.757H146.86ZM153.767 337.21C153.146 337.21 152.586 337.065 152.087 336.776C151.592 336.487 151.2 336.095 150.911 335.6C150.621 335.101 150.477 334.541 150.477 333.92V330C150.477 329.379 150.621 328.822 150.911 328.327C151.2 327.828 151.592 327.433 152.087 327.144C152.586 326.855 153.146 326.71 153.767 326.71C154.387 326.71 154.945 326.855 155.44 327.144C155.939 327.433 156.333 327.828 156.623 328.327C156.912 328.822 157.057 329.379 157.057 330V333.92C157.057 334.541 156.912 335.101 156.623 335.6C156.333 336.095 155.939 336.487 155.44 336.776C154.945 337.065 154.387 337.21 153.767 337.21ZM153.767 336.216C154.182 336.216 154.56 336.116 154.901 335.915C155.241 335.71 155.512 335.437 155.713 335.096C155.913 334.755 156.014 334.38 156.014 333.969V329.951C156.014 329.536 155.913 329.158 155.713 328.817C155.512 328.476 155.241 328.206 154.901 328.005C154.56 327.8 154.182 327.697 153.767 327.697C153.351 327.697 152.973 327.8 152.633 328.005C152.292 328.206 152.021 328.476 151.821 328.817C151.62 329.158 151.52 329.536 151.52 329.951V333.969C151.52 334.38 151.62 334.755 151.821 335.096C152.021 335.437 152.292 335.71 152.633 335.915C152.973 336.116 153.351 336.216 153.767 336.216ZM162.312 337.21C161.691 337.21 161.131 337.065 160.632 336.776C160.137 336.487 159.745 336.095 159.456 335.6C159.166 335.101 159.022 334.541 159.022 333.92V330C159.022 329.379 159.166 328.822 159.456 328.327C159.745 327.828 160.137 327.433 160.632 327.144C161.131 326.855 161.691 326.71 162.312 326.71C162.932 326.71 163.49 326.855 163.985 327.144C164.484 327.433 164.878 327.828 165.168 328.327C165.457 328.822 165.602 329.379 165.602 330V333.92C165.602 334.541 165.457 335.101 165.168 335.6C164.878 336.095 164.484 336.487 163.985 336.776C163.49 337.065 162.932 337.21 162.312 337.21ZM162.312 336.216C162.727 336.216 163.105 336.116 163.446 335.915C163.786 335.71 164.057 335.437 164.258 335.096C164.458 334.755 164.559 334.38 164.559 333.969V329.951C164.559 329.536 164.458 329.158 164.258 328.817C164.057 328.476 163.786 328.206 163.446 328.005C163.105 327.8 162.727 327.697 162.312 327.697C161.896 327.697 161.518 327.8 161.178 328.005C160.837 328.206 160.566 328.476 160.366 328.817C160.165 329.158 160.065 329.536 160.065 329.951V333.969C160.065 334.38 160.165 334.755 160.366 335.096C160.566 335.437 160.837 335.71 161.178 335.915C161.518 336.116 161.896 336.216 162.312 336.216Z" fill="#1E1E1E"></path><path d="M25.18 14V4.288H21.452V2.48H30.836V4.288H27.108V14H25.18ZM38.0911 14V9.84C38.0911 9.568 38.0725 9.26667 38.0351 8.936C37.9978 8.60533 37.9098 8.288 37.7711 7.984C37.6378 7.67467 37.4351 7.42133 37.1631 7.224C36.8965 7.02667 36.5338 6.928 36.0751 6.928C35.8298 6.928 35.5871 6.968 35.3471 7.048C35.1071 7.128 34.8885 7.26667 34.6911 7.464C34.4991 7.656 34.3445 7.92267 34.2271 8.264C34.1098 8.6 34.0511 9.032 34.0511 9.56L32.9071 9.072C32.9071 8.336 33.0485 7.66933 33.3311 7.072C33.6191 6.47467 34.0405 6 34.5951 5.648C35.1498 5.29067 35.8325 5.112 36.6431 5.112C37.2831 5.112 37.8111 5.21867 38.2271 5.432C38.6431 5.64533 38.9738 5.91733 39.2191 6.248C39.4645 6.57867 39.6458 6.93067 39.7631 7.304C39.8805 7.67733 39.9551 8.032 39.9871 8.368C40.0245 8.69867 40.0431 8.968 40.0431 9.176V14H38.0911ZM32.0991 14V2.48H33.8191V8.544H34.0511V14H32.0991ZM45.3707 14.248C44.7307 14.248 44.2027 14.1413 43.7867 13.928C43.3707 13.7147 43.0401 13.4427 42.7947 13.112C42.5494 12.7813 42.3681 12.4293 42.2507 12.056C42.1334 11.6827 42.0561 11.3307 42.0187 11C41.9867 10.664 41.9707 10.392 41.9707 10.184V5.36H43.9227V9.52C43.9227 9.78667 43.9414 10.088 43.9787 10.424C44.0161 10.7547 44.1014 11.0747 44.2347 11.384C44.3734 11.688 44.5761 11.9387 44.8427 12.136C45.1147 12.3333 45.4801 12.432 45.9387 12.432C46.1841 12.432 46.4267 12.392 46.6667 12.312C46.9067 12.232 47.1227 12.096 47.3147 11.904C47.5121 11.7067 47.6694 11.4373 47.7867 11.096C47.9041 10.7547 47.9627 10.3227 47.9627 9.8L49.1067 10.288C49.1067 11.024 48.9627 11.6907 48.6747 12.288C48.3921 12.8853 47.9734 13.3627 47.4187 13.72C46.8641 14.072 46.1814 14.248 45.3707 14.248ZM48.1947 14V11.32H47.9627V5.36H49.8987V14H48.1947ZM57.3495 14V4.584L55.1895 5.904V3.776L57.3495 2.48H59.3175V14H57.3495ZM64.3651 14V4.584L62.2051 5.904V3.776L64.3651 2.48H66.3331V14H64.3651Z" fill="#242424"></path><path d="M129.91 14V2.48H136.846V4.408H131.838V7.28H135.886V9.2H131.838V14H129.91ZM138.285 14V5.36H139.989V7.464L139.781 7.192C139.887 6.904 140.029 6.64267 140.205 6.408C140.386 6.168 140.602 5.97067 140.853 5.816C141.066 5.672 141.301 5.56 141.557 5.48C141.818 5.39467 142.085 5.344 142.357 5.328C142.629 5.30667 142.893 5.31733 143.149 5.36V7.16C142.893 7.08533 142.597 7.06133 142.261 7.088C141.93 7.11467 141.631 7.208 141.365 7.368C141.098 7.512 140.879 7.696 140.709 7.92C140.543 8.144 140.421 8.4 140.341 8.688C140.261 8.97067 140.221 9.27733 140.221 9.608V14H138.285ZM144.835 4.048V2.28H146.763V4.048H144.835ZM144.835 14V5.36H146.763V14H144.835ZM154.363 14V4.584L152.203 5.904V3.776L154.363 2.48H156.331V14H154.363ZM159.058 13.984V12.304L163.986 7.912C164.37 7.57067 164.637 7.248 164.786 6.944C164.936 6.64 165.01 6.34667 165.01 6.064C165.01 5.68 164.928 5.33867 164.762 5.04C164.597 4.736 164.368 4.496 164.074 4.32C163.786 4.144 163.453 4.056 163.074 4.056C162.674 4.056 162.32 4.14933 162.01 4.336C161.706 4.51733 161.469 4.76 161.298 5.064C161.128 5.368 161.048 5.696 161.058 6.048H159.074C159.074 5.28 159.245 4.61067 159.586 4.04C159.933 3.46933 160.408 3.02667 161.01 2.712C161.618 2.39733 162.32 2.24 163.114 2.24C163.85 2.24 164.512 2.40533 165.098 2.736C165.685 3.06133 166.146 3.51467 166.482 4.096C166.818 4.672 166.986 5.336 166.986 6.088C166.986 6.63733 166.912 7.09867 166.762 7.472C166.613 7.84533 166.389 8.18933 166.09 8.504C165.797 8.81867 165.432 9.168 164.994 9.552L161.498 12.648L161.322 12.168H166.986V13.984H159.058Z" fill="#242424"></path><path d="M236.002 14.24C235.159 14.24 234.399 14.0933 233.722 13.8C233.05 13.5067 232.495 13.088 232.058 12.544C231.626 11.9947 231.351 11.344 231.234 10.592L233.234 10.288C233.405 10.9707 233.754 11.4987 234.282 11.872C234.815 12.2453 235.429 12.432 236.122 12.432C236.533 12.432 236.919 12.368 237.282 12.24C237.645 12.112 237.938 11.9253 238.162 11.68C238.391 11.4347 238.506 11.1333 238.506 10.776C238.506 10.616 238.479 10.4693 238.426 10.336C238.373 10.1973 238.293 10.0747 238.186 9.968C238.085 9.86133 237.951 9.76533 237.786 9.68C237.626 9.58933 237.439 9.512 237.226 9.448L234.25 8.568C233.994 8.49333 233.717 8.39467 233.418 8.272C233.125 8.144 232.845 7.97067 232.578 7.752C232.317 7.528 232.101 7.24533 231.93 6.904C231.765 6.55733 231.682 6.13067 231.682 5.624C231.682 4.88267 231.869 4.26133 232.242 3.76C232.621 3.25333 233.127 2.87467 233.762 2.624C234.402 2.37333 235.111 2.25067 235.89 2.256C236.679 2.26133 237.383 2.39733 238.002 2.664C238.621 2.92533 239.138 3.30667 239.554 3.808C239.97 4.30933 240.263 4.91467 240.434 5.624L238.362 5.984C238.277 5.57867 238.111 5.23467 237.866 4.952C237.626 4.664 237.33 4.44533 236.978 4.296C236.631 4.14667 236.261 4.06667 235.866 4.056C235.482 4.05067 235.125 4.10933 234.794 4.232C234.469 4.34933 234.205 4.52 234.002 4.744C233.805 4.968 233.706 5.22933 233.706 5.528C233.706 5.81067 233.791 6.04267 233.962 6.224C234.133 6.4 234.343 6.54133 234.594 6.648C234.85 6.74933 235.109 6.83467 235.37 6.904L237.434 7.48C237.717 7.55467 238.034 7.656 238.386 7.784C238.738 7.912 239.077 8.09067 239.402 8.32C239.727 8.54933 239.994 8.85067 240.202 9.224C240.415 9.59733 240.522 10.072 240.522 10.648C240.522 11.2453 240.397 11.7707 240.146 12.224C239.901 12.672 239.567 13.0453 239.146 13.344C238.725 13.6427 238.242 13.8667 237.698 14.016C237.159 14.1653 236.594 14.24 236.002 14.24ZM244.67 14.24C244.046 14.24 243.518 14.1227 243.086 13.888C242.654 13.648 242.326 13.3307 242.102 12.936C241.883 12.5413 241.774 12.1067 241.774 11.632C241.774 11.216 241.843 10.8427 241.982 10.512C242.12 10.176 242.334 9.888 242.622 9.648C242.91 9.40267 243.283 9.20267 243.742 9.048C244.088 8.936 244.494 8.83467 244.958 8.744C245.427 8.65333 245.934 8.57067 246.478 8.496C247.027 8.416 247.6 8.33067 248.198 8.24L247.51 8.632C247.515 8.03467 247.382 7.59467 247.11 7.312C246.838 7.02933 246.379 6.888 245.734 6.888C245.344 6.888 244.968 6.97867 244.606 7.16C244.243 7.34133 243.99 7.65333 243.846 8.096L242.086 7.544C242.299 6.81333 242.704 6.22667 243.302 5.784C243.904 5.34133 244.715 5.12 245.734 5.12C246.502 5.12 247.176 5.24533 247.758 5.496C248.344 5.74667 248.779 6.15733 249.062 6.728C249.216 7.032 249.31 7.344 249.342 7.664C249.374 7.97867 249.39 8.32267 249.39 8.696V14H247.702V12.128L247.982 12.432C247.592 13.056 247.136 13.5147 246.614 13.808C246.096 14.096 245.448 14.24 244.67 14.24ZM245.054 12.704C245.491 12.704 245.864 12.6267 246.174 12.472C246.483 12.3173 246.728 12.128 246.91 11.904C247.096 11.68 247.222 11.4693 247.286 11.272C247.387 11.0267 247.443 10.7467 247.454 10.432C247.47 10.112 247.478 9.85333 247.478 9.656L248.07 9.832C247.488 9.92267 246.99 10.0027 246.574 10.072C246.158 10.1413 245.8 10.208 245.502 10.272C245.203 10.3307 244.939 10.3973 244.71 10.472C244.486 10.552 244.296 10.6453 244.142 10.752C243.987 10.8587 243.867 10.9813 243.782 11.12C243.702 11.2587 243.662 11.4213 243.662 11.608C243.662 11.8213 243.715 12.0107 243.822 12.176C243.928 12.336 244.083 12.464 244.286 12.56C244.494 12.656 244.75 12.704 245.054 12.704ZM256.537 14C255.966 14.1067 255.406 14.152 254.857 14.136C254.313 14.1253 253.825 14.0267 253.393 13.84C252.961 13.648 252.633 13.3467 252.409 12.936C252.211 12.5627 252.107 12.1813 252.097 11.792C252.086 11.4027 252.081 10.9627 252.081 10.472V2.96H254.001V10.36C254.001 10.7067 254.003 11.0107 254.009 11.272C254.019 11.5333 254.075 11.7467 254.177 11.912C254.369 12.232 254.675 12.4107 255.097 12.448C255.518 12.4853 255.998 12.464 256.537 12.384V14ZM250.513 6.872V5.36H256.537V6.872H250.513ZM263.598 14V4.584L261.438 5.904V3.776L263.598 2.48H265.566V14H263.598ZM271.909 14.216C271.333 14.216 270.789 14.104 270.277 13.88C269.765 13.656 269.32 13.3387 268.941 12.928C268.568 12.5173 268.298 12.032 268.133 11.472L269.997 10.968C270.13 11.4267 270.373 11.7813 270.725 12.032C271.082 12.2773 271.474 12.3973 271.901 12.392C272.28 12.392 272.618 12.304 272.917 12.128C273.216 11.952 273.45 11.7147 273.621 11.416C273.792 11.112 273.877 10.7733 273.877 10.4C273.877 9.82933 273.693 9.352 273.325 8.968C272.957 8.584 272.482 8.392 271.901 8.392C271.725 8.392 271.552 8.416 271.381 8.464C271.216 8.512 271.056 8.57867 270.901 8.664L270.021 7.144L273.893 3.832L274.061 4.296H268.581V2.48H275.645V4.304L272.533 7.296L272.517 6.728C273.216 6.776 273.81 6.97067 274.301 7.312C274.797 7.65333 275.176 8.09333 275.437 8.632C275.704 9.17067 275.837 9.76 275.837 10.4C275.837 11.1253 275.658 11.776 275.301 12.352C274.949 12.928 274.474 13.384 273.877 13.72C273.285 14.0507 272.629 14.216 271.909 14.216Z" fill="#242424"></path><path d="M158.683 152.817C158.361 149.105 159.553 148.689 162.077 148.435V140.724C163.315 139.454 163.908 139.359 164.713 140.724L165.109 145.206C166.215 144.799 166.758 144.945 167.547 146.062C168.885 145.831 169.554 145.972 170.512 147.018C171.481 146.777 172.033 146.778 173.083 147.743V155.947C172.496 158.226 171.765 158.936 170.084 159.67H163.791C160.193 157.696 159.264 156.112 158.683 152.817Z" fill="white"></path><path d="M162.109 151.783C161.857 151.783 161.652 151.578 161.652 151.326V140.826C161.652 139.819 162.471 139 163.478 139C164.486 139 165.305 139.819 165.305 140.826V150.413C165.305 150.665 165.1 150.87 164.848 150.87C164.596 150.87 164.391 150.665 164.391 150.413V140.826C164.391 140.322 163.982 139.913 163.478 139.913C162.975 139.913 162.565 140.322 162.565 140.826V151.326C162.565 151.578 162.361 151.783 162.109 151.783Z" fill="black"></path><path d="M167.587 150.87C167.335 150.87 167.13 150.665 167.13 150.413V146.304C167.13 145.8 166.72 145.391 166.217 145.391C165.714 145.391 165.304 145.8 165.304 146.304C165.304 146.556 165.1 146.761 164.848 146.761C164.596 146.761 164.391 146.556 164.391 146.304C164.391 145.297 165.21 144.478 166.217 144.478C167.224 144.478 168.043 145.297 168.043 146.304V150.413C168.043 150.665 167.839 150.87 167.587 150.87Z" fill="black"></path><path d="M170.326 150.87C170.074 150.87 169.87 150.665 169.87 150.413V147.217C169.87 146.713 169.46 146.304 168.956 146.304C168.453 146.304 168.043 146.713 168.043 147.217C168.043 147.469 167.839 147.674 167.587 147.674C167.335 147.674 167.13 147.469 167.13 147.217C167.13 146.21 167.949 145.391 168.956 145.391C169.964 145.391 170.783 146.21 170.783 147.217V150.413C170.783 150.665 170.578 150.87 170.326 150.87Z" fill="black"></path><path d="M169.413 160H164.129C161.661 160 158 156.344 158 151.293C158 149.549 159.436 148.131 161.201 148.131H162.109C162.361 148.131 162.565 148.335 162.565 148.587C162.565 148.839 162.361 149.044 162.109 149.044H161.201C159.94 149.044 158.913 150.052 158.913 151.293C158.913 156.052 162.339 159.087 164.129 159.087H169.413C171.175 159.087 172.609 157.654 172.609 155.891V148.131C172.609 147.627 172.199 147.217 171.696 147.217C171.193 147.217 170.783 147.627 170.783 148.131C170.783 148.383 170.578 148.587 170.326 148.587C170.074 148.587 169.87 148.383 169.87 148.131C169.87 147.123 170.689 146.304 171.696 146.304C172.703 146.304 173.522 147.123 173.522 148.131V155.891C173.522 158.157 171.678 160 169.413 160Z" fill="black"></path><path fill-rule="evenodd" clip-rule="evenodd" d="M86 80C84.3431 80 83 81.3431 83 83V109C83 110.657 84.3431 112 86 112H145.113L148 117L150.887 112H204C205.657 112 207 110.657 207 109V83C207 81.3431 205.657 80 204 80H86Z" fill="#242424"></path><path d="M107.306 101L110.282 92.36H111.452L114.428 101H113.51L110.684 92.852H111.032L108.224 101H107.306ZM108.632 98.906V98.078H113.096V98.906H108.632ZM116.783 101L114.431 94.52H115.325L117.239 99.848L119.141 94.52H120.047L117.695 101H116.783ZM122.616 101.18C122.128 101.18 121.718 101.092 121.386 100.916C121.058 100.74 120.812 100.506 120.648 100.214C120.484 99.922 120.402 99.604 120.402 99.26C120.402 98.908 120.472 98.608 120.612 98.36C120.756 98.108 120.95 97.902 121.194 97.742C121.442 97.582 121.728 97.46 122.052 97.376C122.38 97.296 122.742 97.226 123.138 97.166C123.538 97.102 123.928 97.048 124.308 97.004C124.692 96.956 125.028 96.91 125.316 96.866L125.004 97.058C125.016 96.418 124.892 95.944 124.632 95.636C124.372 95.328 123.92 95.174 123.276 95.174C122.832 95.174 122.456 95.274 122.148 95.474C121.844 95.674 121.63 95.99 121.506 96.422L120.648 96.17C120.796 95.59 121.094 95.14 121.542 94.82C121.99 94.5 122.572 94.34 123.288 94.34C123.88 94.34 124.382 94.452 124.794 94.676C125.21 94.896 125.504 95.216 125.676 95.636C125.756 95.824 125.808 96.034 125.832 96.266C125.856 96.498 125.868 96.734 125.868 96.974V101H125.082V99.374L125.31 99.47C125.09 100.026 124.748 100.45 124.284 100.742C123.82 101.034 123.264 101.18 122.616 101.18ZM122.718 100.418C123.13 100.418 123.49 100.344 123.798 100.196C124.106 100.048 124.354 99.846 124.542 99.59C124.73 99.33 124.852 99.038 124.908 98.714C124.956 98.506 124.982 98.278 124.986 98.03C124.99 97.778 124.992 97.59 124.992 97.466L125.328 97.64C125.028 97.68 124.702 97.72 124.35 97.76C124.002 97.8 123.658 97.846 123.318 97.898C122.982 97.95 122.678 98.012 122.406 98.084C122.222 98.136 122.044 98.21 121.872 98.306C121.7 98.398 121.558 98.522 121.446 98.678C121.338 98.834 121.284 99.028 121.284 99.26C121.284 99.448 121.33 99.63 121.422 99.806C121.518 99.982 121.67 100.128 121.878 100.244C122.09 100.36 122.37 100.418 122.718 100.418ZM127.55 93.29V92.3H128.432V93.29H127.55ZM127.55 101V94.52H128.432V101H127.55ZM130.351 101V92.18H131.233V101H130.351ZM134.885 101.18C134.397 101.18 133.987 101.092 133.655 100.916C133.327 100.74 133.081 100.506 132.917 100.214C132.753 99.922 132.671 99.604 132.671 99.26C132.671 98.908 132.741 98.608 132.881 98.36C133.025 98.108 133.219 97.902 133.463 97.742C133.711 97.582 133.997 97.46 134.321 97.376C134.649 97.296 135.011 97.226 135.407 97.166C135.807 97.102 136.197 97.048 136.577 97.004C136.961 96.956 137.297 96.91 137.585 96.866L137.273 97.058C137.285 96.418 137.161 95.944 136.901 95.636C136.641 95.328 136.189 95.174 135.545 95.174C135.101 95.174 134.725 95.274 134.417 95.474C134.113 95.674 133.899 95.99 133.775 96.422L132.917 96.17C133.065 95.59 133.363 95.14 133.811 94.82C134.259 94.5 134.841 94.34 135.557 94.34C136.149 94.34 136.651 94.452 137.063 94.676C137.479 94.896 137.773 95.216 137.945 95.636C138.025 95.824 138.077 96.034 138.101 96.266C138.125 96.498 138.137 96.734 138.137 96.974V101H137.351V99.374L137.579 99.47C137.359 100.026 137.017 100.45 136.553 100.742C136.089 101.034 135.533 101.18 134.885 101.18ZM134.987 100.418C135.399 100.418 135.759 100.344 136.067 100.196C136.375 100.048 136.623 99.846 136.811 99.59C136.999 99.33 137.121 99.038 137.177 98.714C137.225 98.506 137.251 98.278 137.255 98.03C137.259 97.778 137.261 97.59 137.261 97.466L137.597 97.64C137.297 97.68 136.971 97.72 136.619 97.76C136.271 97.8 135.927 97.846 135.587 97.898C135.251 97.95 134.947 98.012 134.675 98.084C134.491 98.136 134.313 98.21 134.141 98.306C133.969 98.398 133.827 98.522 133.715 98.678C133.607 98.834 133.553 99.028 133.553 99.26C133.553 99.448 133.599 99.63 133.691 99.806C133.787 99.982 133.939 100.128 134.147 100.244C134.359 100.36 134.639 100.418 134.987 100.418ZM142.609 101.18C142.013 101.18 141.509 101.03 141.097 100.73C140.685 100.426 140.373 100.016 140.161 99.5C139.949 98.98 139.843 98.398 139.843 97.754C139.843 97.098 139.949 96.514 140.161 96.002C140.377 95.486 140.693 95.08 141.109 94.784C141.525 94.488 142.037 94.34 142.645 94.34C143.237 94.34 143.745 94.49 144.169 94.79C144.593 95.09 144.917 95.498 145.141 96.014C145.369 96.53 145.483 97.11 145.483 97.754C145.483 98.402 145.369 98.984 145.141 99.5C144.913 100.016 144.585 100.426 144.157 100.73C143.729 101.03 143.213 101.18 142.609 101.18ZM139.693 101V92.36H140.581V96.122H140.485V101H139.693ZM142.519 100.358C142.971 100.358 143.347 100.244 143.647 100.016C143.947 99.788 144.171 99.478 144.319 99.086C144.471 98.69 144.547 98.246 144.547 97.754C144.547 97.266 144.473 96.826 144.325 96.434C144.177 96.042 143.951 95.732 143.647 95.504C143.347 95.276 142.965 95.162 142.501 95.162C142.049 95.162 141.673 95.272 141.373 95.492C141.077 95.712 140.855 96.018 140.707 96.41C140.559 96.798 140.485 97.246 140.485 97.754C140.485 98.254 140.559 98.702 140.707 99.098C140.855 99.49 141.079 99.798 141.379 100.022C141.679 100.246 142.059 100.358 142.519 100.358ZM146.921 101V92.18H147.803V101H146.921ZM152.344 101.18C151.712 101.18 151.164 101.04 150.7 100.76C150.24 100.48 149.882 100.086 149.626 99.578C149.37 99.07 149.242 98.474 149.242 97.79C149.242 97.082 149.368 96.47 149.62 95.954C149.872 95.438 150.226 95.04 150.682 94.76C151.142 94.48 151.684 94.34 152.308 94.34C152.948 94.34 153.494 94.488 153.946 94.784C154.398 95.076 154.74 95.496 154.972 96.044C155.204 96.592 155.31 97.246 155.29 98.006H154.39V97.694C154.374 96.854 154.192 96.22 153.844 95.792C153.5 95.364 152.996 95.15 152.332 95.15C151.636 95.15 151.102 95.376 150.73 95.828C150.362 96.28 150.178 96.924 150.178 97.76C150.178 98.576 150.362 99.21 150.73 99.662C151.102 100.11 151.628 100.334 152.308 100.334C152.772 100.334 153.176 100.228 153.52 100.016C153.868 99.8 154.142 99.49 154.342 99.086L155.164 99.404C154.908 99.968 154.53 100.406 154.03 100.718C153.534 101.026 152.972 101.18 152.344 101.18ZM149.866 98.006V97.268H154.816V98.006H149.866ZM162.552 101C162.188 101.076 161.828 101.106 161.472 101.09C161.12 101.074 160.804 100.998 160.524 100.862C160.248 100.726 160.038 100.514 159.894 100.226C159.778 99.986 159.714 99.744 159.702 99.5C159.694 99.252 159.69 98.97 159.69 98.654V92.72H160.566V98.618C160.566 98.89 160.568 99.118 160.572 99.302C160.58 99.482 160.622 99.642 160.698 99.782C160.842 100.05 161.07 100.21 161.382 100.262C161.698 100.314 162.088 100.302 162.552 100.226V101ZM158.304 95.276V94.52H162.552V95.276H158.304ZM163.948 93.29V92.3H164.83V93.29H163.948ZM163.948 101V94.52H164.83V101H163.948ZM174.357 101L174.363 96.746C174.363 96.246 174.223 95.854 173.943 95.57C173.667 95.282 173.315 95.138 172.887 95.138C172.643 95.138 172.405 95.194 172.173 95.306C171.941 95.418 171.749 95.598 171.597 95.846C171.449 96.094 171.375 96.418 171.375 96.818L170.853 96.668C170.841 96.204 170.931 95.798 171.123 95.45C171.319 95.102 171.587 94.832 171.927 94.64C172.271 94.444 172.659 94.346 173.091 94.346C173.743 94.346 174.265 94.548 174.657 94.952C175.049 95.352 175.245 95.894 175.245 96.578L175.239 101H174.357ZM166.623 101V94.52H167.415V96.116H167.511V101H166.623ZM170.499 101L170.505 96.806C170.505 96.29 170.367 95.884 170.091 95.588C169.819 95.288 169.459 95.138 169.011 95.138C168.563 95.138 168.201 95.292 167.925 95.6C167.649 95.904 167.511 96.31 167.511 96.818L166.983 96.53C166.983 96.114 167.081 95.742 167.277 95.414C167.473 95.082 167.741 94.822 168.081 94.634C168.421 94.442 168.807 94.346 169.239 94.346C169.651 94.346 170.017 94.434 170.337 94.61C170.661 94.786 170.915 95.042 171.099 95.378C171.283 95.714 171.375 96.122 171.375 96.602L171.369 101H170.499ZM179.496 101.18C178.864 101.18 178.316 101.04 177.852 100.76C177.392 100.48 177.034 100.086 176.778 99.578C176.522 99.07 176.394 98.474 176.394 97.79C176.394 97.082 176.52 96.47 176.772 95.954C177.024 95.438 177.378 95.04 177.834 94.76C178.294 94.48 178.836 94.34 179.46 94.34C180.1 94.34 180.646 94.488 181.098 94.784C181.55 95.076 181.892 95.496 182.124 96.044C182.356 96.592 182.462 97.246 182.442 98.006H181.542V97.694C181.526 96.854 181.344 96.22 180.996 95.792C180.652 95.364 180.148 95.15 179.484 95.15C178.788 95.15 178.254 95.376 177.882 95.828C177.514 96.28 177.33 96.924 177.33 97.76C177.33 98.576 177.514 99.21 177.882 99.662C178.254 100.11 178.78 100.334 179.46 100.334C179.924 100.334 180.328 100.228 180.672 100.016C181.02 99.8 181.294 99.49 181.494 99.086L182.316 99.404C182.06 99.968 181.682 100.406 181.182 100.718C180.686 101.026 180.124 101.18 179.496 101.18ZM177.018 98.006V97.268H181.968V98.006H177.018Z" fill="white"></path></svg> 