<svg width="29" height="29" viewBox="0 0 29 29" fill="none" xmlns="http://www.w3.org/2000/svg">
<path d="M23 14.5C22.1398 20.2348 19.2758 25 14.6818 25C10.0878 25 6.36357 20.299 6.36357 14.5C4.51503 5.5 10.0878 4 14.6818 4C19.2758 4 24.5 4.5 23 14.5Z" fill="#FFE33C"/>
<path d="M13.1708 18.5175L20.0583 11.63L18.7895 10.3914L13.2614 15.9196L10.2103 12.8685L8.88117 14.1977L13.1708 18.5175ZM14.4999 26.5529C11.6805 25.848 9.3645 24.2117 7.552 21.644C5.7395 19.0763 4.83325 16.2619 4.83325 13.2008V6.01123L14.4999 2.38623L24.1666 6.01123V13.2008C24.1666 16.2619 23.2603 19.0763 21.4478 21.644C19.6353 24.2117 17.3194 25.848 14.4999 26.5529ZM14.4999 24.68C16.8159 23.9147 18.7039 22.4697 20.164 20.3451C21.6241 18.2204 22.3541 15.839 22.3541 13.2008V7.27998L14.4999 4.31956L6.64575 7.27998V13.2008C6.64575 15.839 7.37579 18.2204 8.83586 20.3451C10.2959 22.4697 12.1839 23.9147 14.4999 24.68Z" fill="#242424"/>
</svg>
