<svg width="34" height="34" viewBox="0 0 34 34" fill="none" xmlns="http://www.w3.org/2000/svg">
<path d="M7.08325 25.5V30.8352L9.2295 29.5474L15.9757 25.5H22.6666C24.2292 25.5 25.4999 24.2292 25.4999 22.6667V11.3333C25.4999 9.77075 24.2292 8.5 22.6666 8.5H5.66659C4.104 8.5 2.83325 9.77075 2.83325 11.3333V22.6667C2.83325 24.2292 4.104 25.5 5.66659 25.5H7.08325ZM5.66659 11.3333H22.6666V22.6667H15.1908L9.91659 25.8315V22.6667H5.66659V11.3333Z" fill="#242424"/>
<path d="M28.3333 2.83325H11.3333C9.77075 2.83325 8.5 4.104 8.5 5.66658H25.5C27.0626 5.66658 28.3333 6.93733 28.3333 8.49992V19.8333C29.8959 19.8333 31.1667 18.5625 31.1667 16.9999V5.66658C31.1667 4.104 29.8959 2.83325 28.3333 2.83325Z" fill="#242424"/>
</svg>
