<svg width="24" height="24" viewBox="0 0 24 24" fill="none" xmlns="http://www.w3.org/2000/svg">
<path d="M21 3H3C1.9 3 1 3.9 1 5V17C1 18.1 1.9 19 3 19H8V21H16V19H21C22.1 19 23 18.1 23 17V5C23 3.9 22.1 3 21 3ZM21 17H3V5H12H21V17Z" fill="#F0500B"/>
<path d="M12 11C13.105 11 14 10.105 14 9C14 7.895 13.105 7 12 7C10.895 7 10 7.895 10 9C10 10.105 10.895 11 12 11ZM12 12C10.665 12 8 12.67 8 14V14.5C8 14.775 8.225 15 8.5 15H15.5C15.775 15 16 14.775 16 14.5V14C16 12.67 13.335 12 12 12Z" fill="#F0500B"/></svg>