<svg xmlns="http://www.w3.org/2000/svg" width="39" height="39" viewBox="0 0 39 39" fill="none"><path d="M31.0442 9.67671C31.2106 9.50698 31.4091 9.37214 31.6282 9.28009C31.8473 9.18804 32.0826 9.14062 32.3203 9.14062C32.5579 9.14062 32.7932 9.18804 33.0123 9.28009C33.2314 9.37214 33.4299 9.50698 33.5963 9.67671C34.2934 10.3812 34.3032 11.5195 33.6207 12.2361L19.2077 29.2742C19.0441 29.4539 18.8455 29.5983 18.6241 29.6986C18.4028 29.799 18.1632 29.853 17.9203 29.8576C17.6773 29.8622 17.4359 29.8171 17.2109 29.7252C16.9859 29.6333 16.7821 29.4964 16.6118 29.323L7.84166 20.4358C7.50343 20.0909 7.31396 19.6271 7.31396 19.144C7.31396 18.6609 7.50343 18.197 7.84166 17.8521C8.00801 17.6824 8.20655 17.5475 8.42566 17.4555C8.64477 17.3634 8.88004 17.316 9.11769 17.316C9.35535 17.316 9.59062 17.3634 9.80973 17.4555C10.0288 17.5475 10.2274 17.6824 10.3937 17.8521L17.833 25.3913L30.9955 9.73034C31.0106 9.7115 31.0269 9.69359 31.0442 9.67671Z" fill="#F0500B"></path></svg>
