<?xml version="1.0" encoding="UTF-8"?> <svg xmlns="http://www.w3.org/2000/svg" width="48" height="48" viewBox="0 0 48 48" fill="none"><path d="M24 0.375C19.3274 0.375 14.7598 1.76058 10.8747 4.35653C6.98955 6.95248 3.96148 10.6422 2.17336 14.9591C0.385236 19.276 -0.0826175 24.0262 0.828958 28.609C1.74053 33.1918 3.9906 37.4014 7.29461 40.7054C10.5986 44.0094 14.8082 46.2595 19.391 47.1711C23.9738 48.0826 28.724 47.6148 33.0409 45.8267C37.3578 44.0385 41.0475 41.0105 43.6435 37.1253C46.2394 33.2402 47.625 28.6726 47.625 24C47.618 17.7364 45.1266 11.7314 40.6976 7.3024C36.2686 2.87338 30.2636 0.382057 24 0.375ZM32.4375 5.61553C34.2245 6.43948 35.882 7.51922 37.3579 8.82077L36.662 10.5H32.4375V5.61553ZM19.5761 43.7481C15.9245 42.9368 12.5698 41.1279 9.88535 38.5228C7.20094 35.9178 5.29219 32.6189 4.37162 28.9933C3.45104 25.3677 3.55476 21.5578 4.67122 17.9876C5.78769 14.4175 7.87309 11.2273 10.6953 8.77217L12.9719 12.1875H18.612L16.0807 18.9375H9.28383L6.95069 25.9364L11.2844 32.4375H19.7219L22.1382 36.0614L19.5761 43.7481ZM24 44.25C23.6568 44.25 23.3223 44.2163 22.9833 44.1994L25.3402 37.1288C25.5041 36.6416 25.5538 36.1232 25.4855 35.6137C25.4173 35.1043 25.2328 34.6173 24.9464 34.1905L22.53 30.5666C22.2224 30.1036 21.805 29.724 21.315 29.4616C20.825 29.1992 20.2777 29.0621 19.7219 29.0625H13.09L10.6743 25.4386L11.7162 22.3125H15.5625V25.6875H18.9375V20.9308L23.8925 7.71765L20.7325 6.53269L19.8776 8.8125H14.7782L13.416 6.76911C15.7246 5.32807 18.3042 4.37581 20.9954 3.97117C23.6866 3.56653 26.4322 3.71812 29.0625 4.41656V10.5C29.0636 11.3948 29.4196 12.2526 30.0523 12.8853C30.685 13.5179 31.5427 13.8739 32.4375 13.875H36.8009C37.2443 13.8762 37.6836 13.7895 38.0933 13.6198C38.5029 13.4501 38.8749 13.2008 39.1875 12.8863L39.4248 12.6489L39.9003 11.5014C41.2625 13.2322 42.3328 15.174 43.0688 17.25H35.1352C34.3373 17.2475 33.5646 17.5287 32.9551 18.0434C32.3455 18.5581 31.9388 19.2727 31.8076 20.0597L30.8006 25.8671C30.6786 26.5548 30.7742 27.2636 31.0739 27.8945C31.3737 28.5255 31.8627 29.0472 32.4729 29.3872L36.1259 31.8573L38.5871 38.01C36.7035 39.9817 34.4397 41.5513 31.9326 42.6238C29.4254 43.6963 26.7269 44.2495 24 44.25ZM38.8745 29.6425L34.2938 26.5461L34.125 26.4449L35.1352 20.625H43.9451C44.8291 25.604 43.7761 30.7326 41.0019 34.9605L38.8745 29.6425Z" fill="white"></path></svg> 