<?xml version="1.0" encoding="UTF-8"?> <svg xmlns="http://www.w3.org/2000/svg" width="36" height="45" viewBox="0 0 36 45" fill="none"><path d="M18.875 41.25C12.0946 41.25 7.001 36.9424 4.9145 30H22.625V26.25H4.12269C3.95813 25.0068 3.87539 23.7541 3.875 22.5C3.875 21.8813 3.89375 21.2548 3.92356 20.625H22.625V16.875H4.31956C5.45881 10.0359 9.14375 3.75 18.875 3.75C26.0999 3.75 29.2466 6.83719 32.2404 12.1674L35.5096 10.3326C32.4967 4.96575 28.3961 0 18.875 0C6.959 0 0.125 8.20125 0.125 22.5C0.125 35.7476 7.83519 45 18.875 45C28.3961 45 32.4967 40.0342 35.5096 34.6674L32.2404 32.8326C29.2466 38.1628 26.0999 41.25 18.875 41.25Z" fill="white"></path></svg> 