<?xml version="1.0" encoding="UTF-8"?> <svg xmlns="http://www.w3.org/2000/svg" width="40" height="46" viewBox="0 0 40 46" fill="none"><path d="M16.75 23.9587L12.5412 19.75L10.25 22.0413L16.75 28.5413L29.75 15.5412L27.4587 13.25L16.75 23.9587Z" fill="white"></path><path d="M20 45.75L9.96434 40.399C7.10314 38.877 4.71045 36.6045 3.04306 33.8255C1.37567 31.0465 0.496533 27.8658 0.50001 24.625V3.5C0.500914 2.63832 0.843614 1.8122 1.45291 1.2029C2.06221 0.593603 2.88833 0.250903 3.75001 0.25H36.25C37.1117 0.250903 37.9378 0.593603 38.5471 1.2029C39.1564 1.8122 39.4991 2.63832 39.5 3.5V24.625C39.5035 27.8658 38.6244 31.0465 36.957 33.8255C35.2896 36.6045 32.8969 38.877 30.0357 40.399L20 45.75ZM3.75001 3.5V24.625C3.7472 27.2767 4.46656 29.8791 5.83089 32.1529C7.19523 34.4266 9.15301 36.286 11.4941 37.5312L20 42.0666L28.5059 37.5312C30.847 36.286 32.8048 34.4266 34.1691 32.1529C35.5335 29.8791 36.2528 27.2767 36.25 24.625V3.5H3.75001Z" fill="white"></path></svg> 