<?xml version="1.0" encoding="UTF-8"?> <svg xmlns="http://www.w3.org/2000/svg" width="127" height="35" viewBox="0 0 127 35" fill="none"><path d="M0 11.9676C0 10.9004 0.865192 10.0352 1.93246 10.0352H2.27411C2.95179 10.0352 3.54412 10.4925 3.71559 11.1481L3.94307 12.0179C3.98054 12.1612 4.10996 12.2611 4.25804 12.2611V12.2611C4.3587 12.2611 4.45345 12.2142 4.51658 12.1358C5.20164 11.285 5.99053 10.6419 6.88326 10.2064C7.81929 9.74978 8.91513 9.52148 10.1708 9.52148C12.5908 9.52148 14.4058 10.252 15.6158 11.7132C16.8257 13.1515 17.4307 15.4459 17.4307 18.5964C17.4307 20.1032 17.2367 21.473 16.8486 22.7058C16.4605 23.9158 15.8897 24.966 15.1363 25.8564C14.3829 26.7239 13.4469 27.3974 12.3282 27.8768C11.2324 28.3334 9.96532 28.5617 8.52703 28.5617C7.7508 28.5617 7.07732 28.4818 6.50656 28.322V28.322C5.67689 28.1229 4.79431 28.6976 4.79431 29.5508V32.8286C4.79431 33.9332 3.89888 34.8286 2.79431 34.8286H2C0.895431 34.8286 0 33.9332 0 32.8286V11.9676ZM8.69825 13.5282C7.60241 13.5282 6.7577 13.7793 6.16411 14.2815C5.62754 14.7149 5.2029 15.3722 4.89019 16.2533C4.82281 16.4432 4.79431 16.6442 4.79431 16.8457V22.5839C4.79431 23.1815 5.05006 23.7712 5.57932 24.0487C5.7451 24.1357 5.9172 24.2131 6.09562 24.2811C6.57505 24.4637 7.18005 24.5551 7.91061 24.5551C9.46305 24.5551 10.616 24.0756 11.3694 23.1168C12.1228 22.1351 12.4995 20.5826 12.4995 18.4594C12.4995 16.9298 12.2027 15.7313 11.6091 14.8637C11.0383 13.9733 10.0681 13.5282 8.69825 13.5282Z" fill="#242424"></path><path d="M21.576 12.0352C21.576 10.9306 22.4714 10.0352 23.576 10.0352H24.3703C25.4749 10.0352 26.3703 10.9306 26.3703 12.0352V26.0138C26.3703 27.1184 25.4749 28.0138 24.3703 28.0138H23.576C22.4714 28.0138 21.576 27.1184 21.576 26.0138V12.0352Z" fill="#242424"></path><path d="M45.6429 28.0138C44.5384 28.0138 43.6429 27.1184 43.6429 26.0138V18.1512C43.6429 16.5988 43.4032 15.4801 42.9238 14.7952C42.4444 14.1103 41.5997 13.7679 40.3897 13.7679C39.3623 13.7679 38.4834 14.0532 37.7528 14.624C37.1258 15.1094 36.6691 15.7202 36.3825 16.4564C36.3084 16.6468 36.2803 16.8512 36.2803 17.0555C36.2803 18.826 36.2803 20.6067 36.2803 22.3976C36.295 23.603 36.3049 24.8084 36.3102 26.0138C36.315 27.1184 35.4191 28.0138 34.3145 28.0138H33.5202C32.4156 28.0138 31.5202 27.1184 31.5202 26.0138V12.0352C31.5202 10.9306 32.4156 10.0352 33.5202 10.0352H33.9775C34.739 10.0352 35.3946 10.5726 35.544 11.3194L35.7392 12.2952C35.775 12.4745 35.9324 12.6035 36.1152 12.6035V12.6035C36.2402 12.6035 36.3567 12.5423 36.4314 12.4422C37.0102 11.6669 37.7588 11.0015 38.6774 10.4461C39.6591 9.82969 40.9376 9.52148 42.5129 9.52148C43.4717 9.52148 44.3164 9.64705 45.047 9.89818C45.8004 10.1265 46.4168 10.5374 46.8962 11.131C47.3985 11.7018 47.7752 12.478 48.0263 13.4597C48.3003 14.4414 48.4373 15.6742 48.4373 17.1581V26.0138C48.4373 27.1184 47.5418 28.0138 46.4373 28.0138H45.6429Z" fill="#242424"></path><path d="M53.0157 11.9676C53.0157 10.9003 53.8809 10.0352 54.9481 10.0352H55.2898C55.9675 10.0352 56.5598 10.4925 56.7313 11.1481L56.9587 12.0179C56.9962 12.1612 57.1256 12.2611 57.2737 12.2611V12.2611C57.3744 12.2611 57.4691 12.2142 57.5322 12.1358C58.2173 11.285 59.0062 10.6419 59.8989 10.2064C60.835 9.74978 61.9308 9.52148 63.1865 9.52148C65.6064 9.52148 67.4214 10.252 68.6314 11.7132C69.8414 13.1515 70.4464 15.4459 70.4464 18.5964C70.4464 20.1032 70.2524 21.473 69.8643 22.7058C69.4761 23.9158 68.9054 24.966 68.152 25.8564C67.3986 26.7239 66.4626 27.3974 65.3439 27.8768C64.2481 28.3334 62.981 28.5617 61.5427 28.5617C60.7665 28.5617 60.093 28.4818 59.5222 28.322V28.322C58.6926 28.1229 57.81 28.6976 57.81 29.5508V32.8286C57.81 33.9332 56.9145 34.8286 55.81 34.8286H55.0157C53.9111 34.8286 53.0157 33.9332 53.0157 32.8286V11.9676ZM61.7139 13.5282C60.6181 13.5282 59.7734 13.7793 59.1798 14.2815C58.6432 14.7149 58.2186 15.3722 57.9059 16.2533C57.8385 16.4432 57.81 16.6442 57.81 16.8457V22.5839C57.81 23.1815 58.0657 23.7712 58.595 24.0487C58.7608 24.1357 58.9329 24.2131 59.1113 24.2811C59.5907 24.4637 60.1957 24.5551 60.9263 24.5551C62.4787 24.5551 63.6316 24.0756 64.385 23.1168C65.1384 22.1351 65.5151 20.5826 65.5151 18.4594C65.5151 16.9298 65.2183 15.7313 64.6248 14.8637C64.054 13.9733 63.0837 13.5282 61.7139 13.5282Z" fill="#242424"></path><path d="M74.409 12.9029C74.0865 11.979 74.5262 10.9558 75.4621 10.6698C76.1139 10.4706 76.8283 10.2933 77.6052 10.1379C79.112 9.84111 80.6645 9.69271 82.2626 9.69271C83.5182 9.69271 84.5684 9.84111 85.4131 10.1379C86.2807 10.4347 86.9656 10.8685 87.4678 11.4392C87.9701 11.9871 88.324 12.6606 88.5294 13.4597C88.7577 14.2359 88.8719 15.1034 88.8719 16.0623C88.8719 17.2266 88.8262 18.3795 88.7349 19.521C88.6436 20.6625 88.5979 21.8725 88.5979 23.151C88.5979 24.0186 88.655 24.8633 88.7691 25.6852V25.6852C88.9335 26.8688 88.083 28.0481 86.888 28.0481H86.7802C85.9696 28.0481 85.2557 27.5143 85.0265 26.7368L84.695 25.6126C84.6538 25.4729 84.5255 25.3769 84.3798 25.3769V25.3769C84.2758 25.3769 84.1784 25.4264 84.1146 25.5085C83.5371 26.2514 82.817 26.8925 81.9544 27.4317C81.0412 28.0024 79.8654 28.2878 78.4271 28.2878C77.5596 28.2878 76.7605 28.1622 76.03 27.9111C75.3222 27.66 74.7058 27.3061 74.1807 26.8495C73.6785 26.3701 73.2789 25.8107 72.9822 25.1715C72.7082 24.5322 72.5712 23.8359 72.5712 23.0825C72.5712 21.0507 73.2447 19.521 74.5917 18.4937C75.9615 17.4435 78.0276 16.9184 80.79 16.9184C81.4293 16.9184 82.0685 16.9755 82.7078 17.0896C82.7458 17.0951 82.7832 17.1004 82.8199 17.1057C83.4891 17.2019 84.1461 16.7383 84.1461 16.0623V16.0623C84.1461 15.1948 83.9292 14.5555 83.4954 14.1446C83.0616 13.7336 82.2512 13.5282 81.064 13.5282C79.9682 13.5282 78.8951 13.6651 77.845 13.9391C77.5816 14.0035 77.3258 14.0723 77.0774 14.1457C75.9984 14.4645 74.7798 13.9652 74.409 12.9029V12.9029ZM80.1051 24.4523C81.1781 24.4523 82.0343 24.2012 82.6735 23.6989C83.1443 23.329 83.5223 22.9467 83.8073 22.552C84.0021 22.2823 84.0776 21.9494 84.0776 21.6168V20.6345C84.0776 20.2929 83.8657 19.9931 83.5296 19.932V19.932C83.3013 19.8863 83.0388 19.8407 82.742 19.795C82.468 19.7493 82.1827 19.7151 81.8859 19.6923C81.6119 19.6694 81.3608 19.658 81.1325 19.658C79.8997 19.658 78.9865 19.8863 78.3929 20.3429C77.7993 20.7767 77.5025 21.3246 77.5025 21.9867C77.5025 22.8086 77.7308 23.425 78.1874 23.8359C78.6668 24.2469 79.3061 24.4523 80.1051 24.4523Z" fill="#242424"></path><path d="M100.074 20.0005L100.784 22.7143C100.809 22.8102 100.896 22.8771 100.995 22.8771V22.8771C101.097 22.8771 101.185 22.8065 101.208 22.7072L101.82 20.0005L104.435 11.4502C104.692 10.6094 105.468 10.0352 106.348 10.0352H106.902C108.292 10.0352 109.258 11.418 108.78 12.7231L103.806 26.3016C103.304 27.6485 102.825 28.8585 102.368 29.9315C101.934 31.0046 101.455 31.9178 100.93 32.6712C100.405 33.4245 99.811 33.9953 99.1489 34.3834C98.5097 34.7943 97.7448 34.9998 96.8545 34.9998C96.2609 34.9998 95.6901 34.9427 95.1422 34.8286V34.8286C94.3086 34.6836 93.928 33.8038 94.1475 32.9866L94.4854 31.728C94.6374 31.1622 95.2413 30.8562 95.8271 30.8562V30.8562C96.1467 30.8562 96.4549 30.8219 96.7517 30.7534C97.0485 30.6849 97.3225 30.548 97.5736 30.3425C97.8248 30.1598 98.0531 29.8859 98.2585 29.5206C98.3906 29.3225 98.5113 29.0823 98.6204 28.8C98.788 28.3669 98.7356 27.8854 98.5434 27.4626L91.9071 12.8628C91.3052 11.5386 92.2733 10.0352 93.7279 10.0352H95.0138C95.8522 10.0352 96.6016 10.5581 96.8909 11.3449L100.074 20.0005Z" fill="#242424"></path><path d="M112.083 12.9029C111.76 11.979 112.2 10.9558 113.136 10.6698C113.788 10.4706 114.502 10.2933 115.279 10.1379C116.786 9.84111 118.338 9.69271 119.936 9.69271C121.192 9.69271 122.242 9.84111 123.087 10.1379C123.954 10.4347 124.639 10.8685 125.141 11.4392C125.644 11.9871 125.998 12.6606 126.203 13.4597C126.431 14.2359 126.546 15.1034 126.546 16.0623C126.546 17.2266 126.5 18.3795 126.409 19.521C126.317 20.6625 126.272 21.8725 126.272 23.151C126.272 24.0186 126.329 24.8633 126.443 25.6852V25.6852C126.607 26.8688 125.757 28.0481 124.562 28.0481H124.454C123.643 28.0481 122.929 27.5143 122.7 26.7368L122.369 25.6126C122.327 25.4729 122.199 25.3769 122.053 25.3769V25.3769C121.949 25.3769 121.852 25.4264 121.788 25.5085C121.211 26.2514 120.491 26.8925 119.628 27.4317C118.715 28.0024 117.539 28.2878 116.101 28.2878C115.233 28.2878 114.434 28.1622 113.704 27.9111C112.996 27.66 112.379 27.3061 111.854 26.8495C111.352 26.3701 110.953 25.8107 110.656 25.1715C110.382 24.5322 110.245 23.8359 110.245 23.0825C110.245 21.0507 110.918 19.521 112.265 18.4937C113.635 17.4435 115.701 16.9184 118.464 16.9184C119.103 16.9184 119.742 16.9755 120.381 17.0896C120.419 17.0951 120.457 17.1004 120.494 17.1057C121.163 17.2019 121.82 16.7383 121.82 16.0623V16.0623C121.82 15.1948 121.603 14.5555 121.169 14.1446C120.735 13.7336 119.925 13.5282 118.738 13.5282C117.642 13.5282 116.569 13.6651 115.519 13.9391C115.255 14.0035 114.999 14.0723 114.751 14.1457C113.672 14.4645 112.453 13.9652 112.083 12.9029V12.9029ZM117.779 24.4523C118.852 24.4523 119.708 24.2012 120.347 23.6989C120.818 23.329 121.196 22.9467 121.481 22.552C121.676 22.2823 121.751 21.9494 121.751 21.6168V20.6345C121.751 20.2929 121.539 19.9931 121.203 19.932V19.932C120.975 19.8863 120.712 19.8407 120.416 19.795C120.142 19.7493 119.856 19.7151 119.56 19.6923C119.286 19.6694 119.034 19.658 118.806 19.658C117.573 19.658 116.66 19.8863 116.067 20.3429C115.473 20.7767 115.176 21.3246 115.176 21.9867C115.176 22.8086 115.404 23.425 115.861 23.8359C116.34 24.2469 116.98 24.4523 117.779 24.4523Z" fill="#242424"></path><ellipse rx="2.48678" ry="3.73018" transform="matrix(0.855908 0.517128 -0.517129 0.855907 24.5557 3.82608)" fill="#F0500B"></ellipse></svg> 