<svg width="40.897" height="31.638" viewBox="0 0 10.821 8.371" xmlns="http://www.w3.org/2000/svg">
   <path fill-rule="evenodd" clip-rule="evenodd"
      d="M10.479 8.259v.021h.02c.004 0 .008 0 .01-.003a.009.009 0 00.004-.008.009.009 0 00-.004-.008.018.018 0 00-.01-.003zm.02-.015c.01 0 .018.002.023.007.006.005.009.01.009.018a.022.022 0 01-.007.017.034.034 0 01-.019.008l.027.03h-.021l-.024-.03h-.008v.03h-.017v-.08zm-.005.107a.07.07 0 00.025-.005.068.068 0 00.022-.11.067.067 0 00-.022-.014.07.07 0 00-.052 0 .06.06 0 00-.021.014.076.076 0 00-.015.022.07.07 0 000 .052.078.078 0 00.015.022c.006.006.013.01.021.014a.08.08 0 00.027.005zm0-.153a.08.08 0 01.034.007c.01.004.02.01.028.018a.084.084 0 010 .122.087.087 0 01-.062.026.08.08 0 01-.035-.007.096.096 0 01-.028-.019.083.083 0 01-.019-.095c.005-.01.011-.019.02-.027a.084.084 0 01.027-.018.08.08 0 01.035-.007zm-8.081-.309c0-.153.1-.278.263-.278.156 0 .26.12.26.278 0 .158-.104.278-.26.278-.163 0-.263-.125-.263-.278zm.701 0v-.434h-.188v.105a.328.328 0 00-.274-.127c-.243 0-.433.19-.433.456s.19.456.433.456c.123 0 .214-.049.274-.127v.106h.188zm6.364 0c0-.153.1-.278.263-.278.156 0 .261.12.261.278 0 .158-.105.278-.26.278-.164 0-.264-.125-.264-.278zm.701 0v-.783h-.188v.454a.328.328 0 00-.273-.127c-.243 0-.434.19-.434.456s.19.456.434.456c.123 0 .213-.049.273-.127v.106h.188zm-4.727-.287c.121 0 .2.076.219.21h-.45c.02-.125.097-.21.23-.21zm.003-.17c-.253 0-.43.186-.43.457 0 .276.184.456.443.456.13 0 .25-.032.355-.121l-.092-.14a.412.412 0 01-.252.09c-.121 0-.232-.056-.26-.212h.644a.886.886 0 00.004-.073c-.002-.27-.169-.456-.412-.456zm2.274.457c0-.153.1-.278.263-.278.156 0 .261.12.261.278 0 .158-.105.278-.26.278-.164 0-.264-.125-.264-.278zm.702 0v-.434h-.189v.105a.328.328 0 00-.273-.127c-.243 0-.433.19-.433.456s.19.456.433.456c.123 0 .214-.049.273-.127v.106h.189zm-1.765 0c0 .264.183.456.462.456.13 0 .218-.029.312-.103l-.091-.153a.38.38 0 01-.227.078c-.15-.002-.26-.11-.26-.278 0-.167.11-.276.26-.278a.38.38 0 01.227.078l.09-.153a.453.453 0 00-.311-.103.438.438 0 00-.462.456zm2.428-.456c-.109 0-.18.05-.228.127v-.105h-.187v.869h.189v-.488c0-.143.061-.223.184-.223a.3.3 0 01.118.022l.058-.179a.401.401 0 00-.134-.023zm-5.048.09a.646.646 0 00-.354-.09c-.219 0-.36.105-.36.278 0 .142.105.229.299.256l.088.013c.104.014.153.042.153.09 0 .068-.07.106-.198.106a.46.46 0 01-.288-.09l-.089.147a.624.624 0 00.375.112c.25 0 .395-.118.395-.283 0-.153-.114-.233-.302-.26l-.09-.013c-.08-.01-.146-.027-.146-.085 0-.064.062-.102.165-.102.11 0 .218.042.27.075zm2.43-.09c-.11 0-.18.05-.229.127v-.105h-.186v.869h.188v-.488c0-.143.062-.223.185-.223.038 0 .078.005.118.022l.058-.179a.401.401 0 00-.134-.023zm-1.608.022H4.56V7.19h-.19v.264h-.176v.172h.176v.397c0 .201.078.321.3.321a.441.441 0 00.236-.067l-.054-.162a.347.347 0 01-.167.05c-.094 0-.125-.059-.125-.146v-.393h.308zm-2.816.869v-.546c0-.205-.13-.343-.34-.345a.335.335 0 00-.305.154.318.318 0 00-.286-.154.286.286 0 00-.254.129v-.107H.68v.869h.19v-.482c0-.151.083-.231.212-.231.125 0 .188.082.188.23v.483h.19v-.482c0-.151.088-.231.213-.231.128 0 .19.082.19.23v.483z"
      fill="#fff" />
   <path d="M6.838.832H3.983v5.146h2.855z" fill="#242424" />
   <path fill-rule="evenodd" clip-rule="evenodd"
      d="M4.164 3.405A3.27 3.27 0 015.41.832a3.242 3.242 0 00-2.016-.7A3.267 3.267 0 00.132 3.405a3.267 3.267 0 003.262 3.273c.761 0 1.461-.262 2.016-.7a3.271 3.271 0 01-1.246-2.573zM10.586 5.433v-.127h-.033l-.038.088-.038-.088h-.033v.127h.024v-.096l.035.083h.024l.036-.083v.096zm-.209 0v-.105h.042v-.022h-.108v.022h.043v.105zm.311-2.028a3.267 3.267 0 01-3.262 3.273c-.76 0-1.46-.262-2.016-.7a3.272 3.272 0 001.246-2.573A3.272 3.272 0 005.41.832a3.241 3.241 0 012.016-.7 3.267 3.267 0 013.262 3.273z"
      fill="#242424" stroke="#fff" stroke-width=".265" />
</svg>