<svg width="58.66" height="14.332" viewBox="0 0 15.52 3.792" xmlns="http://www.w3.org/2000/svg">
   <g fill-rule="evenodd" clip-rule="evenodd" fill="#fff">
      <path
         d="M11.952.848H11.1a.119.119 0 00-.117.1l-.345 2.204a.071.071 0 00.07.083h.438c.04 0 .076-.03.082-.07l.098-.625a.119.119 0 01.117-.1h.27c.562 0 .887-.275.971-.818.039-.237.002-.424-.109-.554-.121-.144-.336-.22-.622-.22zm.099.805c-.047.308-.28.308-.507.308h-.129l.09-.576a.072.072 0 01.071-.06h.059c.154 0 .3 0 .375.088.044.053.058.132.04.24zM5.866.848h-.854a.119.119 0 00-.117.1L4.55 3.153a.072.072 0 00.07.083h.408a.119.119 0 00.117-.1l.093-.595a.119.119 0 01.117-.1h.27c.562 0 .887-.275.971-.818.039-.237.002-.424-.108-.554-.122-.144-.337-.22-.622-.22zm.098.805c-.046.308-.28.308-.507.308H5.33l.09-.576a.071.071 0 01.07-.06h.06c.153 0 .299 0 .374.088.045.053.058.132.041.24zM8.417 1.643h-.41a.071.071 0 00-.07.06l-.017.116-.029-.042c-.089-.13-.286-.173-.483-.173-.451 0-.837.345-.912.828a.78.78 0 00.152.632c.125.148.303.21.515.21.364 0 .566-.236.566-.236l-.019.114a.071.071 0 00.07.083h.369a.119.119 0 00.117-.1l.22-1.41a.071.071 0 00-.07-.082zm-.57.801a.457.457 0 01-.461.393c-.119 0-.214-.038-.275-.111a.35.35 0 01-.064-.29.458.458 0 01.458-.395c.116 0 .21.039.273.112a.356.356 0 01.069.291zM14.503 1.643h-.408a.071.071 0 00-.07.06l-.019.116-.028-.042c-.089-.13-.286-.173-.483-.173-.451 0-.837.345-.912.828a.78.78 0 00.152.632c.125.148.303.21.515.21.364 0 .565-.236.565-.236l-.018.114a.071.071 0 00.07.083h.369a.119.119 0 00.116-.1l.221-1.41a.071.071 0 00-.07-.082zm-.57.801a.456.456 0 01-.46.393c-.119 0-.214-.038-.275-.111a.351.351 0 01-.064-.29.458.458 0 01.458-.395c.116 0 .21.039.272.112a.356.356 0 01.07.291zM10.593 1.643h-.41c-.04 0-.077.02-.099.052l-.567.84-.24-.807a.119.119 0 00-.113-.085H8.76a.072.072 0 00-.067.095l.452 1.337-.425.604a.072.072 0 00.057.113h.41c.04 0 .076-.02.098-.051l1.366-1.986a.072.072 0 00-.058-.112zM14.985.909l-.35 2.244a.072.072 0 00.07.082h.352a.119.119 0 00.117-.1L15.52.93a.071.071 0 00-.07-.083h-.395a.071.071 0 00-.07.06z" />
      <path opacity=".68"
         d="M2.876.963c.046-.295 0-.495-.159-.677C2.543.086 2.227 0 1.824 0H.654a.168.168 0 00-.165.142L0 3.254a.101.101 0 00.1.117h.722l-.05.319a.088.088 0 00.087.102h.61a.147.147 0 00.144-.124l.006-.032.115-.732.007-.04a.147.147 0 01.144-.125h.092c.59 0 1.052-.242 1.187-.94.056-.291.027-.535-.122-.706a.58.58 0 00-.167-.13z" />
      <path opacity=".7"
         d="M2.876.963c.046-.295 0-.495-.159-.677C2.543.086 2.227 0 1.824 0H.654a.168.168 0 00-.165.142L0 3.254a.101.101 0 00.1.117h.722l.182-1.159-.006.037a.167.167 0 01.165-.143h.343c.675 0 1.203-.276 1.357-1.074l.012-.069z" />
      <path
         d="M1.2.967a.147.147 0 01.144-.124h.918a1.88 1.88 0 01.38.037l.073.019.034.01a.818.818 0 01.127.055c.046-.295 0-.496-.159-.678C2.543.086 2.227 0 1.824 0H.654a.168.168 0 00-.165.142L0 3.255a.101.101 0 00.1.116h.722l.182-1.159z" />
   </g>
</svg>