<svg width="52.171" height="16.81" viewBox="0 0 13.803 4.448" xmlns="http://www.w3.org/2000/svg">
   <path fill-rule="evenodd" clip-rule="evenodd"
      d="M6.835.079L5.912 4.38H4.797L5.719.08zm4.692 2.777l.587-1.615.338 1.615zm1.245 1.524h1.031l-.9-4.301h-.952a.508.508 0 00-.475.315L9.803 4.38h1.17l.233-.642h1.431zM9.86 2.976C9.866 1.84 8.287 1.778 8.298 1.27c.003-.155.15-.319.473-.36.16-.021.6-.037 1.1.192l.196-.912A3.002 3.002 0 009.023 0C7.921 0 7.145.585 7.138 1.422c-.007.62.554.965.977 1.17.434.212.58.347.579.535-.004.289-.347.416-.668.421-.56.01-.886-.15-1.146-.271l-.202.942c.26.12.742.224 1.24.229 1.173 0 1.939-.578 1.943-1.472zM5.24.079L3.434 4.38h-1.18L1.366.947C1.311.736 1.265.658 1.1.57.832.424.39.288 0 .203L.026.08h1.898c.242 0 .46.16.515.438l.47 2.49L4.068.079z"
      fill="#fff" />
</svg>