<?xml version="1.0" encoding="UTF-8"?> <svg xmlns="http://www.w3.org/2000/svg" width="34" height="34" viewBox="0 0 34 34" fill="none"><g clip-path="url(#clip0_1807_22)"><path d="M12.4375 29V26.2222H6.025C5.485 26.2222 5.0125 26.0139 4.6075 25.5972C4.2025 25.1806 4 24.6944 4 24.1389V6.08333C4 5.52778 4.2025 5.04167 4.6075 4.625C5.0125 4.20833 5.485 4 6.025 4H28.975C29.515 4 29.9875 4.20833 30.3925 4.625C30.7975 5.04167 31 5.52778 31 6.08333V24.1389C31 24.6944 30.7975 25.1806 30.3925 25.5972C29.9875 26.0139 29.515 26.2222 28.975 26.2222H22.5625V29H12.4375ZM6.025 24.1389H28.975V6.08333H6.025V24.1389Z" fill="black"></path><path d="M28.9754 6.08398H6.02539V24.1395H28.9754V6.08398Z" fill="#FFE33C"></path><path d="M8.05078 9.55966C8.05078 9.49726 8.09996 9.44666 8.16062 9.44666H8.79738C8.84734 9.44666 8.89101 9.48135 8.90364 9.53107L9.00809 9.9419C9.01718 9.97769 9.0486 10.0026 9.08455 10.0026C9.10899 10.0026 9.132 9.99094 9.14732 9.97135C9.31364 9.75884 9.50517 9.5982 9.72191 9.48943C9.94916 9.37538 10.2152 9.31836 10.5201 9.31836C11.1076 9.31836 11.5482 9.50083 11.842 9.86578C12.1357 10.225 12.2826 10.7981 12.2826 11.585C12.2826 11.9614 12.2355 12.3035 12.1413 12.6115C12.0471 12.9137 11.9085 13.176 11.7256 13.3984C11.5427 13.6151 11.3154 13.7833 11.0439 13.903C10.7778 14.0171 10.4702 14.0741 10.121 14.0741C9.93253 14.0741 9.76902 14.0542 9.63045 14.0143C9.54393 13.9929 9.45741 13.9659 9.37089 13.9335C9.29638 13.9055 9.21475 13.9605 9.21475 14.0421V15.5264C9.21475 15.5889 9.16557 15.6394 9.10491 15.6394H8.16062C8.09996 15.6394 8.05078 15.5889 8.05078 15.5264V9.55966ZM10.1626 10.3191C9.8965 10.3191 9.69142 10.3819 9.54731 10.5073C9.40629 10.6245 9.29711 10.8072 9.21979 11.0555C9.21641 11.0663 9.21475 11.0776 9.21475 11.089V12.7634C9.21475 12.7972 9.22924 12.8295 9.25551 12.8497C9.33907 12.9141 9.4308 12.9658 9.53068 13.0049C9.64708 13.0505 9.79396 13.0734 9.97133 13.0734C10.3482 13.0734 10.6281 12.9536 10.8111 12.7141C10.994 12.4689 11.0854 12.0812 11.0854 11.5508C11.0854 11.1688 11.0134 10.8694 10.8692 10.6527C10.7307 10.4303 10.4951 10.3191 10.1626 10.3191Z" fill="black"></path><path d="M13.2891 9.56027C13.2891 9.49786 13.3382 9.44727 13.3989 9.44727H14.3431C14.4038 9.44727 14.453 9.49786 14.453 9.56027V13.8249C14.453 13.8873 14.4038 13.9379 14.3431 13.9379H13.3989C13.3382 13.9379 13.2891 13.8873 13.2891 13.8249V9.56027Z" fill="black"></path><path d="M18.7561 13.9373C18.6955 13.9373 18.6463 13.8867 18.6463 13.8243V11.4739C18.6463 11.0861 18.5881 10.8067 18.4717 10.6356C18.3553 10.4645 18.1502 10.379 17.8564 10.379C17.607 10.379 17.3936 10.4503 17.2163 10.5928C17.0488 10.7262 16.9314 10.8974 16.864 11.1066C16.8604 11.1175 16.8587 11.129 16.8587 11.1406C16.8587 11.6024 16.8587 12.0671 16.8587 12.5345C16.8639 12.9644 16.8666 13.3944 16.867 13.8243C16.8671 13.8867 16.8179 13.9373 16.7572 13.9373H15.8129C15.7523 13.9373 15.7031 13.8867 15.7031 13.8243V9.55966C15.7031 9.49726 15.7523 9.44666 15.8129 9.44666H16.5276C16.58 9.44666 16.625 9.48468 16.6353 9.53751L16.7274 10.0112C16.7361 10.0559 16.7743 10.0882 16.8187 10.0882C16.849 10.0882 16.8773 10.0729 16.8954 10.0479C17.036 9.85423 17.2177 9.68803 17.4407 9.5493C17.6791 9.39534 17.9895 9.31836 18.3719 9.31836C18.6047 9.31836 18.8098 9.34972 18.9871 9.41245C19.1701 9.46947 19.3197 9.57212 19.4361 9.72037C19.5581 9.86294 19.6495 10.0568 19.7105 10.302C19.777 10.5472 19.8102 10.8552 19.8102 11.2258V13.8243C19.8102 13.8867 19.7611 13.9373 19.7004 13.9373H18.7561Z" fill="black"></path><path d="M8.08203 16.628C8.08203 16.5656 8.1312 16.5151 8.19187 16.5151H8.82863C8.87859 16.5151 8.92225 16.5497 8.93489 16.5994L9.03933 17.0103C9.04843 17.046 9.07985 17.071 9.1158 17.071C9.14024 17.071 9.16324 17.0593 9.17857 17.0397C9.34489 16.8272 9.53642 16.6666 9.75316 16.5578C9.98041 16.4437 10.2465 16.3867 10.5513 16.3867C11.1388 16.3867 11.5795 16.5692 11.8732 16.9341C12.167 17.2934 12.3139 17.8665 12.3139 18.6534C12.3139 19.0298 12.2668 19.3719 12.1725 19.6798C12.0783 19.9821 11.9398 20.2444 11.7569 20.4668C11.5739 20.6835 11.3467 20.8516 11.0751 20.9714C10.809 21.0855 10.5014 21.1425 10.1522 21.1425C9.96378 21.1425 9.80027 21.1226 9.6617 21.0826C9.57518 21.0612 9.48866 21.0344 9.40213 21.0019C9.32762 20.9739 9.246 21.0288 9.246 21.1104V22.5948C9.246 22.6572 9.19682 22.7078 9.13616 22.7078H8.19187C8.1312 22.7078 8.08203 22.6572 8.08203 22.5948V16.628ZM10.1938 17.3875C9.92775 17.3875 9.72267 17.4502 9.57856 17.5757C9.43754 17.6928 9.32836 17.8755 9.25104 18.1238C9.24766 18.1346 9.246 18.146 9.246 18.1573V19.8318C9.246 19.8655 9.26049 19.8978 9.28676 19.918C9.37032 19.9824 9.46204 20.0341 9.56193 20.0733C9.67833 20.1189 9.82521 20.1417 10.0026 20.1417C10.3795 20.1417 10.6594 20.022 10.8423 19.7825C11.0252 19.5373 11.1167 19.1495 11.1167 18.6192C11.1167 18.2371 11.0446 17.9378 10.9005 17.7211C10.7619 17.4987 10.5264 17.3875 10.1938 17.3875Z" fill="black"></path><path d="M13.171 16.9214C13.1522 16.8659 13.1778 16.8045 13.2308 16.7825C13.4618 16.6866 13.7356 16.606 14.0522 16.5409C14.418 16.4668 14.7949 16.4297 15.1829 16.4297C15.4878 16.4297 15.7428 16.4668 15.9478 16.5409C16.1584 16.615 16.3248 16.7234 16.4467 16.8659C16.5686 17.0027 16.6545 17.171 16.7044 17.3706C16.7599 17.5645 16.7875 17.7811 16.7875 18.0207C16.7875 18.3115 16.7765 18.5994 16.7543 18.8845C16.7321 19.1697 16.721 19.4719 16.721 19.7912C16.721 20.008 16.7349 20.2189 16.7626 20.4242C16.7831 20.5756 16.8125 20.7224 16.8511 20.8645C16.8712 20.9388 16.8182 21.0144 16.7433 21.0144H16.03C15.9812 21.0144 15.9384 20.9814 15.9246 20.9334L15.7735 20.4061C15.7635 20.3711 15.7323 20.3472 15.6969 20.3472C15.6717 20.3472 15.6481 20.3595 15.6325 20.3801C15.4923 20.5657 15.3175 20.7257 15.1081 20.8605C14.8864 21.003 14.6009 21.0743 14.2518 21.0743C14.0412 21.0743 13.8472 21.0429 13.6698 20.9802C13.4979 20.9175 13.3483 20.8291 13.2208 20.715C13.0989 20.5952 13.0019 20.4555 12.9298 20.2959C12.8633 20.1362 12.8301 19.9623 12.8301 19.7741C12.8301 19.2666 12.9936 18.8845 13.3206 18.628C13.6532 18.3657 14.1548 18.2345 14.8254 18.2345C14.9806 18.2345 15.1358 18.2487 15.291 18.2773C15.3756 18.2897 15.4462 18.3004 15.5027 18.3095C15.5643 18.3193 15.6229 18.2759 15.6294 18.2121C15.6366 18.1409 15.6402 18.077 15.6402 18.0207C15.6402 17.8039 15.5875 17.6443 15.4822 17.5416C15.3769 17.439 15.1802 17.3877 14.8919 17.3877C14.6259 17.3877 14.3654 17.4219 14.1104 17.4903C13.9079 17.5413 13.7235 17.6035 13.5575 17.677C13.4972 17.7037 13.4263 17.6738 13.4046 17.61L13.171 16.9214ZM14.6591 20.1163C14.9197 20.1163 15.1275 20.0535 15.2827 19.9281C15.4284 19.8103 15.5375 19.6875 15.6099 19.5596C15.6191 19.5434 15.6236 19.5248 15.6236 19.506V19.0979C15.6236 19.0517 15.596 19.0104 15.5522 19C15.534 18.9958 15.5135 18.9915 15.4905 18.9872C15.4351 18.9758 15.3714 18.9644 15.2993 18.953C15.2328 18.9416 15.1636 18.933 15.0915 18.9273C15.025 18.9216 14.964 18.9188 14.9085 18.9188C14.6092 18.9188 14.3876 18.9758 14.2435 19.0898C14.0993 19.1982 14.0273 19.335 14.0273 19.5004C14.0273 19.7057 14.0827 19.8597 14.1936 19.9623C14.3099 20.065 14.4651 20.1163 14.6591 20.1163Z" fill="black"></path><path d="M19.5075 19.0047L19.6801 19.6825C19.6862 19.7065 19.7072 19.7232 19.7313 19.7232C19.756 19.7232 19.7775 19.7056 19.7829 19.6808L19.9315 19.0047L20.6478 16.5956C20.6619 16.5481 20.7045 16.5156 20.7528 16.5156H21.7032C21.7795 16.5156 21.8326 16.5938 21.8063 16.6675L20.4137 20.5785C20.2918 20.915 20.1755 21.2172 20.0646 21.4852C19.9593 21.7532 19.8429 21.9813 19.7154 22.1695C19.5879 22.3577 19.4438 22.5002 19.283 22.5972C19.1279 22.6998 18.9422 22.7511 18.726 22.7511C18.5819 22.7511 18.4433 22.7369 18.3103 22.7084C18.2169 22.6917 18.1326 22.6674 18.057 22.6353C18.0096 22.6153 17.9872 22.561 18.0005 22.5101L18.1886 21.7892C18.205 21.7264 18.2695 21.6915 18.3317 21.7031C18.3791 21.7118 18.4274 21.7162 18.4766 21.7162C18.5542 21.7162 18.629 21.7076 18.7011 21.6905C18.7731 21.6734 18.8396 21.6392 18.9006 21.5878C18.9616 21.5422 19.017 21.4738 19.0669 21.3826C19.1173 21.3047 19.1609 21.2008 19.1976 21.071C19.2047 21.0458 19.2024 21.0188 19.1919 20.9949L17.2834 16.6753C17.2503 16.6006 17.3035 16.5156 17.3835 16.5156H18.5413C18.5873 16.5156 18.6285 16.5451 18.6444 16.5896L19.5075 19.0047Z" fill="black"></path><path d="M22.3175 16.9214C22.2987 16.8659 22.3243 16.8045 22.3772 16.7825C22.6083 16.6866 22.8821 16.606 23.1987 16.5409C23.5645 16.4668 23.9414 16.4297 24.3294 16.4297C24.6342 16.4297 24.8893 16.4668 25.0943 16.5409C25.3049 16.615 25.4712 16.7234 25.5931 16.8659C25.7151 17.0027 25.801 17.171 25.8509 17.3706C25.9063 17.5645 25.934 17.7811 25.934 18.0207C25.934 18.3115 25.9229 18.5994 25.9007 18.8845C25.8786 19.1697 25.8675 19.4719 25.8675 19.7912C25.8675 20.008 25.8814 20.2189 25.9091 20.4242C25.9295 20.5756 25.959 20.7224 25.9975 20.8645C26.0177 20.9388 25.9647 21.0144 25.8897 21.0144H25.1765C25.1277 21.0144 25.0849 20.9814 25.0711 20.9334L24.92 20.4061C24.91 20.3711 24.8788 20.3472 24.8434 20.3472C24.8182 20.3472 24.7946 20.3595 24.779 20.3801C24.6388 20.5657 24.464 20.7257 24.2546 20.8605C24.0329 21.003 23.7474 21.0743 23.3982 21.0743C23.1876 21.0743 22.9937 21.0429 22.8163 20.9802C22.6444 20.9175 22.4948 20.8291 22.3673 20.715C22.2453 20.5952 22.1484 20.4555 22.0763 20.2959C22.0098 20.1362 21.9766 19.9623 21.9766 19.7741C21.9766 19.2666 22.14 18.8845 22.4671 18.628C22.7997 18.3657 23.3013 18.2345 23.9719 18.2345C24.1271 18.2345 24.2823 18.2487 24.4375 18.2773C24.5221 18.2897 24.5927 18.3004 24.6492 18.3095C24.7108 18.3193 24.7694 18.2759 24.7759 18.2121C24.7831 18.1409 24.7867 18.077 24.7867 18.0207C24.7867 17.8039 24.734 17.6443 24.6287 17.5416C24.5234 17.439 24.3266 17.3877 24.0384 17.3877C23.7724 17.3877 23.5119 17.4219 23.2569 17.4903C23.0543 17.5413 22.87 17.6035 22.704 17.677C22.6437 17.7037 22.5728 17.6738 22.5511 17.61L22.3175 16.9214ZM23.8056 20.1163C24.0662 20.1163 24.274 20.0535 24.4292 19.9281C24.5749 19.8103 24.684 19.6875 24.7564 19.5596C24.7656 19.5434 24.77 19.5248 24.77 19.506V19.0979C24.77 19.0517 24.7425 19.0104 24.6987 19C24.6805 18.9958 24.66 18.9915 24.637 18.9872C24.5816 18.9758 24.5179 18.9644 24.4458 18.953C24.3793 18.9416 24.31 18.933 24.2379 18.9273C24.1715 18.9216 24.1105 18.9188 24.055 18.9188C23.7557 18.9188 23.5341 18.9758 23.3899 19.0898C23.2458 19.1982 23.1737 19.335 23.1737 19.5004C23.1737 19.7057 23.2292 19.8597 23.3401 19.9623C23.4564 20.065 23.6116 20.1163 23.8056 20.1163Z" fill="black"></path><path d="M14.5286 8.21826C14.27 8.65868 13.8289 8.8719 13.5436 8.6945C13.2582 8.5171 13.2364 8.01626 13.4951 7.57584C13.7537 7.13542 14.1948 6.9222 14.4802 7.0996C14.7656 7.27699 14.7872 7.77783 14.5286 8.21826Z" fill="#F0500B"></path></g><defs><clipPath id="clip0_1807_22"><rect width="27" height="25" fill="white" transform="translate(4 4)"></rect></clipPath></defs></svg> 